<svg width="1279" height="773" viewBox="0 0 1279 773" fill="none" xmlns="http://www.w3.org/2000/svg">
<path d="M129.032 239.122C3.38809 210.931 -6.83692 66.1151 3.5 0H1278.93V681.12C1134.88 845.837 803.099 749.752 655.214 681.12C619.702 669.877 539.174 609.434 501.161 457.604C453.644 267.817 286.086 274.361 129.032 239.122Z" fill="#F1F8FF"/>
<path d="M164.032 149.122C38.3881 120.931 27.6511 -18.3473 37.988 -84.4624L1313.93 -90V591.12C1169.88 755.837 838.099 659.752 690.214 591.12C654.702 579.877 574.174 519.434 536.161 367.604C488.644 177.817 321.086 184.361 164.032 149.122Z" fill="#E7F3FF"/>
<path d="M231.032 56.122C105.388 27.9308 94.651 -111.347 104.988 -177.462L1380.93 -183V498.12C1236.88 662.837 905.099 566.752 757.214 498.12C721.702 486.877 641.174 426.434 603.161 274.604C555.644 84.8167 388.086 91.3611 231.032 56.122Z" fill="#D7EBFF"/>
<path d="M307.032 -66.878C181.388 -95.0692 170.651 -234.347 180.988 -300.462L1456.93 -306V375.12C1312.88 539.837 981.099 443.752 833.214 375.12C797.702 363.877 717.174 303.434 679.161 151.604C631.644 -38.1833 464.086 -31.6389 307.032 -66.878Z" fill="#C4E1FF"/>
<path d="M446.032 -187.878C320.388 -216.069 309.651 -355.347 319.988 -421.462L1595.93 -427V254.12C1451.88 418.837 1120.1 322.752 972.214 254.12C936.702 242.877 856.174 182.434 818.161 30.604C770.644 -159.183 603.086 -152.639 446.032 -187.878Z" fill="#B3D9FF"/>
<path d="M504.032 -337.878C378.388 -366.069 367.651 -505.347 377.988 -571.462L1653.93 -577V104.12C1509.88 268.837 1178.1 172.752 1030.21 104.12C994.702 92.8771 914.174 32.4338 876.161 -119.396C828.644 -309.183 661.086 -302.639 504.032 -337.878Z" fill="#A2D0FF"/>
</svg>
