<svg width="680" height="297" viewBox="0 0 680 297" fill="none" xmlns="http://www.w3.org/2000/svg">
<path d="M443.655 147.561C352.623 156.119 206.072 147.561 150.053 56.4428C106.799 -13.9112 35.2176 -4.26454 1.50121 10.5237V296.572H679.736C673.334 238.175 665.398 211.83 662.23 205.957C642.724 128.935 534.686 139.003 443.655 147.561Z" fill="#E7F3FF"/>
<path d="M418.655 182.561C327.623 191.119 181.072 182.561 125.053 91.4428C81.7991 21.0888 10.2176 30.7355 -23.4988 45.5237V331.572H654.736C648.334 273.175 640.398 246.83 637.23 240.957C617.724 163.935 509.686 174.003 418.655 182.561Z" fill="#D7EBFF"/>
<path d="M386.655 221.561C295.623 230.119 149.072 221.561 93.0527 130.443C49.7991 60.0888 -21.7824 69.7355 -55.4988 84.5237V370.572H622.736C616.334 312.175 608.398 285.83 605.23 279.957C585.724 202.935 477.686 213.003 386.655 221.561Z" fill="#C4E1FF"/>
<path d="M346.655 263.561C255.623 272.119 109.072 263.561 53.0527 172.443C9.79906 102.089 -61.7824 111.735 -95.4988 126.524V412.572H582.736C576.334 354.175 568.398 327.83 565.23 321.957C545.724 244.935 437.686 255.003 346.655 263.561Z" fill="#B3D9FF"/>
</svg>
