<svg width="1440" height="1024" viewBox="0 0 1440 1024" fill="none" xmlns="http://www.w3.org/2000/svg">
<g clip-path="url(#clip0_33_3)">
<rect width="1440" height="1024" fill="white"/>
<path d="M443.655 874.561C352.623 883.119 206.072 874.561 150.053 783.443C106.799 713.089 35.2176 722.735 1.50121 737.524V1023.57H679.736C673.334 965.175 665.398 938.83 662.23 932.957C642.724 855.935 534.686 866.003 443.655 874.561Z" fill="#E7F3FF"/>
<path d="M418.655 909.561C327.623 918.119 181.072 909.561 125.053 818.443C81.7991 748.089 10.2176 757.735 -23.4988 772.524V1058.57H654.736C648.334 1000.18 640.398 973.83 637.23 967.957C617.724 890.935 509.686 901.003 418.655 909.561Z" fill="#D7EBFF"/>
<path d="M386.655 948.561C295.623 957.119 149.072 948.561 93.0527 857.443C49.7991 787.089 -21.7824 796.735 -55.4988 811.524V1097.57H622.736C616.334 1039.18 608.398 1012.83 605.23 1006.96C585.724 929.935 477.686 940.003 386.655 948.561Z" fill="#C4E1FF"/>
<path d="M346.655 990.561C255.623 999.119 109.072 990.561 53.0527 899.443C9.79906 829.089 -61.7824 838.735 -95.4988 853.524V1139.57H582.736C576.334 1081.18 568.398 1054.83 565.23 1048.96C545.724 971.935 437.686 982.003 346.655 990.561Z" fill="#B3D9FF"/>
</g>
<path d="M290.032 239.122C164.388 210.931 154.163 66.1151 164.5 0H1439.93V681.12C1295.88 845.837 964.099 749.752 816.214 681.12C780.702 669.877 700.174 609.434 662.161 457.604C614.644 267.817 447.086 274.361 290.032 239.122Z" fill="#F1F8FF"/>
<path d="M325.032 149.122C199.388 120.931 188.651 -18.3473 198.988 -84.4624L1474.93 -90V591.12C1330.88 755.837 999.099 659.752 851.214 591.12C815.702 579.877 735.174 519.434 697.161 367.604C649.644 177.817 482.086 184.361 325.032 149.122Z" fill="#E7F3FF"/>
<path d="M392.032 56.122C266.388 27.9308 255.651 -111.347 265.988 -177.462L1541.93 -183V498.12C1397.88 662.837 1066.1 566.752 918.214 498.12C882.702 486.877 802.174 426.434 764.161 274.604C716.644 84.8167 549.086 91.3611 392.032 56.122Z" fill="#D7EBFF"/>
<path d="M468.032 -66.878C342.388 -95.0692 331.651 -234.347 341.988 -300.462L1617.93 -306V375.12C1473.88 539.837 1142.1 443.752 994.214 375.12C958.702 363.877 878.174 303.434 840.161 151.604C792.644 -38.1833 625.086 -31.6389 468.032 -66.878Z" fill="#C4E1FF"/>
<path d="M607.032 -187.878C481.388 -216.069 470.651 -355.347 480.988 -421.462L1756.93 -427V254.12C1612.88 418.837 1281.1 322.752 1133.21 254.12C1097.7 242.877 1017.17 182.434 979.161 30.604C931.644 -159.183 764.086 -152.639 607.032 -187.878Z" fill="#B3D9FF"/>
<path d="M665.032 -337.878C539.388 -366.069 528.651 -505.347 538.988 -571.462L1814.93 -577V104.12C1670.88 268.837 1339.1 172.752 1191.21 104.12C1155.7 92.8771 1075.17 32.4338 1037.16 -119.396C989.644 -309.183 822.086 -302.639 665.032 -337.878Z" fill="#A2D0FF"/>
<defs>
<clipPath id="clip0_33_3">
<rect width="1440" height="1024" fill="white"/>
</clipPath>
</defs>
</svg>
