<svg width="50" height="50" viewBox="0 0 50 50" fill="none" xmlns="http://www.w3.org/2000/svg">
<path d="M18.75 18.75C18.338 18.75 17.9352 18.8722 17.5926 19.1011C17.25 19.33 16.983 19.6554 16.8253 20.0361C16.6676 20.4167 16.6263 20.8356 16.7067 21.2398C16.7871 21.6439 16.9855 22.0151 17.2769 22.3065C17.5682 22.5978 17.9395 22.7962 18.3436 22.8766C18.7477 22.957 19.1666 22.9158 19.5473 22.7581C19.928 22.6004 20.2533 22.3334 20.4823 21.9908C20.7112 21.6482 20.8334 21.2454 20.8334 20.8333C20.8334 20.2808 20.6139 19.7509 20.2232 19.3602C19.8325 18.9695 19.3026 18.75 18.75 18.75ZM31.25 27.0833C29.393 27.0832 27.5698 27.5796 25.969 28.521C24.3683 29.4624 23.0484 30.8145 22.1459 32.4375C21.8743 32.9159 21.8029 33.4822 21.9473 34.013C22.0917 34.5438 22.4402 34.996 22.9167 35.2708C23.2281 35.4473 23.5796 35.5406 23.9375 35.5417C24.3067 35.541 24.6691 35.4423 24.9875 35.2556C25.306 35.0689 25.5691 34.801 25.75 34.4792C26.2924 33.4967 27.0894 32.6784 28.0571 32.1102C29.0249 31.542 30.1278 31.2449 31.25 31.25C31.8026 31.25 32.3325 31.0305 32.7232 30.6398C33.1139 30.2491 33.3334 29.7192 33.3334 29.1667C33.3334 28.6141 33.1139 28.0842 32.7232 27.6935C32.3325 27.3028 31.8026 27.0833 31.25 27.0833ZM31.25 18.75C30.838 18.75 30.4352 18.8722 30.0926 19.1011C29.75 19.33 29.483 19.6554 29.3253 20.0361C29.1676 20.4167 29.1263 20.8356 29.2067 21.2398C29.2871 21.6439 29.4855 22.0151 29.7769 22.3065C30.0683 22.5978 30.4395 22.7962 30.8436 22.8766C31.2477 22.957 31.6666 22.9158 32.0473 22.7581C32.428 22.6004 32.7533 22.3334 32.9823 21.9908C33.2112 21.6482 33.3334 21.2454 33.3334 20.8333C33.3334 20.2808 33.1139 19.7509 32.7232 19.3602C32.3325 18.9695 31.8026 18.75 31.25 18.75ZM25 4.16666C20.8796 4.16666 16.8517 5.38851 13.4256 7.67771C9.99963 9.9669 7.32937 13.2206 5.75254 17.0274C4.17571 20.8342 3.76314 25.0231 4.567 29.0644C5.37086 33.1056 7.35504 36.8178 10.2686 39.7314C13.1822 42.645 16.8944 44.6292 20.9356 45.433C24.9769 46.2369 29.1658 45.8243 32.9726 44.2475C36.7794 42.6707 40.0331 40.0004 42.3223 36.5744C44.6115 33.1483 45.8334 29.1204 45.8334 25C45.8334 22.2641 45.2945 19.555 44.2475 17.0274C43.2005 14.4998 41.666 12.2032 39.7314 10.2686C37.7969 8.33404 35.5002 6.79947 32.9726 5.7525C30.445 4.70553 27.7359 4.16666 25 4.16666ZM25 41.6667C21.7037 41.6667 18.4813 40.6892 15.7405 38.8578C12.9997 37.0265 10.8635 34.4235 9.60204 31.378C8.34058 28.3326 8.01052 24.9815 8.65361 21.7485C9.2967 18.5155 10.884 15.5458 13.2149 13.2149C15.5458 10.884 18.5155 9.29666 21.7485 8.65357C24.9815 8.01048 28.3327 8.34054 31.3781 9.602C34.4235 10.8635 37.0265 12.9997 38.8579 15.7405C40.6892 18.4813 41.6667 21.7036 41.6667 25C41.6667 29.4203 39.9107 33.6595 36.7851 36.7851C33.6595 39.9107 29.4203 41.6667 25 41.6667Z" fill="white"/>
</svg>
