<svg width="50" height="50" viewBox="0 0 50 50" fill="none" xmlns="http://www.w3.org/2000/svg">
<path d="M44.1042 4.29086C42.6109 4.03364 41.0987 3.90124 39.5834 3.89503C34.4133 3.89079 29.3511 5.37331 25.0001 8.16586C20.6379 5.40997 15.5764 3.96384 10.4167 3.9992C8.90142 4.0054 7.38925 4.13781 5.89591 4.39503C5.40675 4.47936 4.96378 4.73557 4.64677 5.11751C4.32975 5.49946 4.15953 5.98205 4.16674 6.47836V31.4784C4.16228 31.7845 4.22534 32.0878 4.35143 32.3668C4.47752 32.6458 4.66355 32.8935 4.89627 33.0924C5.12899 33.2913 5.40269 33.4365 5.6979 33.5176C5.9931 33.5987 6.30256 33.6138 6.60424 33.5617C9.5897 33.0448 12.6484 33.1306 15.6002 33.8139C18.552 34.4973 21.3372 35.7645 23.7917 37.5409L24.0417 37.6867H24.2709C24.502 37.783 24.7498 37.8325 25.0001 37.8325C25.2504 37.8325 25.4982 37.783 25.7292 37.6867H25.9584L26.2084 37.5409C28.6458 35.7248 31.423 34.4166 34.3754 33.6937C37.3278 32.9708 40.3952 32.848 43.3959 33.3325C43.6976 33.3846 44.007 33.3696 44.3023 33.2884C44.5975 33.2073 44.8712 33.0622 45.1039 32.8633C45.3366 32.6643 45.5226 32.4166 45.6487 32.1376C45.7748 31.8586 45.8379 31.5553 45.8334 31.2492V6.2492C45.8117 5.77452 45.6284 5.32151 45.3139 4.96532C44.9994 4.60912 44.5726 4.37115 44.1042 4.29086ZM22.9167 31.9784C19.0623 29.9506 14.772 28.8923 10.4167 28.895C9.72924 28.895 9.04174 28.895 8.33341 28.895V8.0617C9.02728 8.02171 9.72287 8.02171 10.4167 8.0617C14.8613 8.05678 19.2089 9.36105 22.9167 11.8117V31.9784ZM41.6667 28.9784C40.9584 28.9784 40.2709 28.9784 39.5834 28.9784C35.2282 28.9757 30.9378 30.034 27.0834 32.0617V11.8117C30.7913 9.36105 35.1389 8.05678 39.5834 8.0617C40.2773 8.02171 40.9729 8.02171 41.6667 8.0617V28.9784ZM44.1042 37.6242C42.6109 37.367 41.0987 37.2346 39.5834 37.2284C34.4133 37.2241 29.3511 38.7066 25.0001 41.4992C20.6491 38.7066 15.5868 37.2241 10.4167 37.2284C8.90142 37.2346 7.38925 37.367 5.89591 37.6242C5.62471 37.6672 5.36471 37.7635 5.13083 37.9073C4.89695 38.0512 4.69383 38.2399 4.53313 38.4625C4.37243 38.6852 4.25734 38.9374 4.19446 39.2047C4.13158 39.472 4.12216 39.7491 4.16674 40.02C4.27261 40.561 4.5886 41.038 5.04547 41.3465C5.50235 41.655 6.06287 41.7698 6.60424 41.6659C9.5897 41.149 12.6484 41.2347 15.6002 41.9181C18.552 42.6015 21.3372 43.8687 23.7917 45.645C24.1446 45.8962 24.5669 46.0312 25.0001 46.0312C25.4332 46.0312 25.8556 45.8962 26.2084 45.645C28.6629 43.8687 31.4481 42.6015 34.3999 41.9181C37.3517 41.2347 40.4105 41.149 43.3959 41.6659C43.9373 41.7698 44.4978 41.655 44.9547 41.3465C45.4116 41.038 45.7275 40.561 45.8334 40.02C45.878 39.7491 45.8686 39.472 45.8057 39.2047C45.7428 38.9374 45.6277 38.6852 45.467 38.4625C45.3063 38.2399 45.1032 38.0512 44.8693 37.9073C44.6354 37.7635 44.3754 37.6672 44.1042 37.6242Z" fill="#2977E8"/>
</svg>
