<svg width="50" height="50" viewBox="0 0 50 50" fill="none" xmlns="http://www.w3.org/2000/svg">
<path d="M24.9998 39.584C25.4119 39.584 25.8147 39.4618 26.1573 39.2329C26.4999 39.004 26.7669 38.6786 26.9246 38.2979C27.0823 37.9173 27.1235 37.4984 27.0431 37.0942C26.9628 36.6901 26.7643 36.3189 26.473 36.0275C26.1816 35.7362 25.8104 35.5378 25.4063 35.4574C25.0021 35.377 24.5833 35.4182 24.2026 35.5759C23.8219 35.7336 23.4965 36.0006 23.2676 36.3432C23.0387 36.6858 22.9165 37.0886 22.9165 37.5007C22.9165 38.0532 23.136 38.5831 23.5267 38.9738C23.9174 39.3645 24.4473 39.584 24.9998 39.584ZM35.4165 39.584C35.8286 39.584 36.2313 39.4618 36.5739 39.2329C36.9165 39.004 37.1836 38.6786 37.3413 38.2979C37.4989 37.9173 37.5402 37.4984 37.4598 37.0942C37.3794 36.6901 37.181 36.3189 36.8896 36.0275C36.5983 35.7362 36.2271 35.5378 35.8229 35.4574C35.4188 35.377 34.9999 35.4182 34.6193 35.5759C34.2386 35.7336 33.9132 36.0006 33.6843 36.3432C33.4554 36.6858 33.3332 37.0886 33.3332 37.5007C33.3332 38.0532 33.5527 38.5831 33.9434 38.9738C34.3341 39.3645 34.864 39.584 35.4165 39.584ZM35.4165 31.2507C35.8286 31.2507 36.2313 31.1285 36.5739 30.8996C36.9165 30.6707 37.1836 30.3453 37.3413 29.9646C37.4989 29.5839 37.5402 29.165 37.4598 28.7609C37.3794 28.3568 37.181 27.9856 36.8896 27.6942C36.5983 27.4028 36.2271 27.2044 35.8229 27.124C35.4188 27.0437 34.9999 27.0849 34.6193 27.2426C34.2386 27.4003 33.9132 27.6673 33.6843 28.0099C33.4554 28.3525 33.3332 28.7553 33.3332 29.1673C33.3332 29.7199 33.5527 30.2498 33.9434 30.6405C34.3341 31.0312 34.864 31.2507 35.4165 31.2507ZM24.9998 31.2507C25.4119 31.2507 25.8147 31.1285 26.1573 30.8996C26.4999 30.6707 26.7669 30.3453 26.9246 29.9646C27.0823 29.5839 27.1235 29.165 27.0431 28.7609C26.9628 28.3568 26.7643 27.9856 26.473 27.6942C26.1816 27.4028 25.8104 27.2044 25.4063 27.124C25.0021 27.0437 24.5833 27.0849 24.2026 27.2426C23.8219 27.4003 23.4965 27.6673 23.2676 28.0099C23.0387 28.3525 22.9165 28.7553 22.9165 29.1673C22.9165 29.7199 23.136 30.2498 23.5267 30.6405C23.9174 31.0312 24.4473 31.2507 24.9998 31.2507ZM39.5832 6.25068H37.4998V4.16734C37.4998 3.61481 37.2803 3.0849 36.8896 2.6942C36.4989 2.3035 35.969 2.08401 35.4165 2.08401C34.864 2.08401 34.3341 2.3035 33.9434 2.6942C33.5527 3.0849 33.3332 3.61481 33.3332 4.16734V6.25068H16.6665V4.16734C16.6665 3.61481 16.447 3.0849 16.0563 2.6942C15.6656 2.3035 15.1357 2.08401 14.5832 2.08401C14.0306 2.08401 13.5007 2.3035 13.11 2.6942C12.7193 3.0849 12.4998 3.61481 12.4998 4.16734V6.25068H10.4165C8.7589 6.25068 7.16919 6.90916 5.99709 8.08126C4.82498 9.25336 4.1665 10.8431 4.1665 12.5007V41.6673C4.1665 43.3249 4.82498 44.9147 5.99709 46.0868C7.16919 47.2589 8.7589 47.9173 10.4165 47.9173H39.5832C41.2408 47.9173 42.8305 47.2589 44.0026 46.0868C45.1747 44.9147 45.8332 43.3249 45.8332 41.6673V12.5007C45.8332 10.8431 45.1747 9.25336 44.0026 8.08126C42.8305 6.90916 41.2408 6.25068 39.5832 6.25068ZM41.6665 41.6673C41.6665 42.2199 41.447 42.7498 41.0563 43.1405C40.6656 43.5312 40.1357 43.7507 39.5832 43.7507H10.4165C9.86397 43.7507 9.33407 43.5312 8.94337 43.1405C8.55266 42.7498 8.33317 42.2199 8.33317 41.6673V22.9173H41.6665V41.6673ZM41.6665 18.7507H8.33317V12.5007C8.33317 11.9481 8.55266 11.4182 8.94337 11.0275C9.33407 10.6368 9.86397 10.4173 10.4165 10.4173H12.4998V12.5007C12.4998 13.0532 12.7193 13.5831 13.11 13.9738C13.5007 14.3645 14.0306 14.584 14.5832 14.584C15.1357 14.584 15.6656 14.3645 16.0563 13.9738C16.447 13.5831 16.6665 13.0532 16.6665 12.5007V10.4173H33.3332V12.5007C33.3332 13.0532 33.5527 13.5831 33.9434 13.9738C34.3341 14.3645 34.864 14.584 35.4165 14.584C35.969 14.584 36.4989 14.3645 36.8896 13.9738C37.2803 13.5831 37.4998 13.0532 37.4998 12.5007V10.4173H39.5832C40.1357 10.4173 40.6656 10.6368 41.0563 11.0275C41.447 11.4182 41.6665 11.9481 41.6665 12.5007V18.7507ZM14.5832 31.2507C14.9952 31.2507 15.398 31.1285 15.7406 30.8996C16.0832 30.6707 16.3502 30.3453 16.5079 29.9646C16.6656 29.5839 16.7069 29.165 16.6265 28.7609C16.5461 28.3568 16.3477 27.9856 16.0563 27.6942C15.765 27.4028 15.3937 27.2044 14.9896 27.124C14.5855 27.0437 14.1666 27.0849 13.7859 27.2426C13.4052 27.4003 13.0799 27.6673 12.8509 28.0099C12.622 28.3525 12.4998 28.7553 12.4998 29.1673C12.4998 29.7199 12.7193 30.2498 13.11 30.6405C13.5007 31.0312 14.0306 31.2507 14.5832 31.2507ZM14.5832 39.584C14.9952 39.584 15.398 39.4618 15.7406 39.2329C16.0832 39.004 16.3502 38.6786 16.5079 38.2979C16.6656 37.9173 16.7069 37.4984 16.6265 37.0942C16.5461 36.6901 16.3477 36.3189 16.0563 36.0275C15.765 35.7362 15.3937 35.5378 14.9896 35.4574C14.5855 35.377 14.1666 35.4182 13.7859 35.5759C13.4052 35.7336 13.0799 36.0006 12.8509 36.3432C12.622 36.6858 12.4998 37.0886 12.4998 37.5007C12.4998 38.0532 12.7193 38.5831 13.11 38.9738C13.5007 39.3645 14.0306 39.584 14.5832 39.584Z" fill="white"/>
</svg>
