<svg width="28" height="28" viewBox="0 0 28 28" fill="none" xmlns="http://www.w3.org/2000/svg">
<path d="M14 7.00016C13.8468 7.00012 13.6951 7.03027 13.5535 7.08889C13.4119 7.1475 13.2833 7.23344 13.175 7.34178C13.0666 7.45013 12.9807 7.57875 12.9221 7.72032C12.8635 7.86188 12.8333 8.01361 12.8333 8.16683V12.8335H10.5C10.1906 12.8335 9.89385 12.9564 9.67506 13.1752C9.45626 13.394 9.33335 13.6907 9.33335 14.0002C9.33335 14.3096 9.45626 14.6063 9.67506 14.8251C9.89385 15.0439 10.1906 15.1668 10.5 15.1668H14C14.1532 15.1669 14.305 15.1367 14.4465 15.0781C14.5881 15.0195 14.7167 14.9336 14.8251 14.8252C14.9334 14.7169 15.0193 14.5882 15.078 14.4467C15.1366 14.3051 15.1667 14.1534 15.1667 14.0002V8.16683C15.1667 8.01361 15.1366 7.86188 15.078 7.72032C15.0193 7.57875 14.9334 7.45013 14.8251 7.34178C14.7167 7.23344 14.5881 7.1475 14.4465 7.08889C14.305 7.03027 14.1532 7.00012 14 7.00016ZM14 2.3335C11.6926 2.3335 9.43694 3.01773 7.51836 4.29968C5.59979 5.58163 4.10444 7.40372 3.22142 9.53552C2.3384 11.6673 2.10736 14.0131 2.55752 16.2762C3.00768 18.5393 4.11882 20.6181 5.75044 22.2497C7.38205 23.8814 9.46085 24.9925 11.724 25.4427C13.9871 25.8928 16.3329 25.6618 18.4647 24.7788C20.5965 23.8957 22.4185 22.4004 23.7005 20.4818C24.9824 18.5632 25.6667 16.3076 25.6667 14.0002C25.6631 10.9071 24.4328 7.94165 22.2457 5.75449C20.0585 3.56733 17.0931 2.33703 14 2.3335ZM14 23.3335C12.1541 23.3335 10.3496 22.7861 8.81469 21.7605C7.27983 20.735 6.08356 19.2773 5.37714 17.5719C4.67072 15.8664 4.48589 13.9898 4.84602 12.1793C5.20615 10.3688 6.09506 8.70579 7.40035 7.4005C8.70564 6.09521 10.3687 5.2063 12.1792 4.84617C13.9897 4.48604 15.8663 4.67087 17.5717 5.37729C19.2772 6.0837 20.7348 7.27998 21.7604 8.81484C22.786 10.3497 23.3333 12.1542 23.3333 14.0002C23.3305 16.4746 22.3463 18.847 20.5965 20.5967C18.8468 22.3464 16.4745 23.3307 14 23.3335Z" fill="#2977E8"/>
</svg>
