<svg width="44" height="34" viewBox="0 0 44 34" fill="none" xmlns="http://www.w3.org/2000/svg">
<path d="M42.7709 12.2295L40.6876 11.0837L21.9376 0.666992H21.7084C21.5807 0.612989 21.4481 0.571138 21.3126 0.541992H20.9167H20.5417C20.3994 0.571157 20.2599 0.61299 20.1251 0.666992H19.8959L1.14589 11.0837C0.825274 11.2654 0.55859 11.5289 0.373049 11.8473C0.187509 12.1657 0.0897522 12.5276 0.0897522 12.8962C0.0897522 13.2647 0.187509 13.6266 0.373049 13.945C0.55859 14.2635 0.825274 14.527 1.14589 14.7087L6.33339 17.5837V27.4587C6.33339 29.1163 6.99187 30.706 8.16398 31.8781C9.33608 33.0502 10.9258 33.7087 12.5834 33.7087H29.2501C30.9077 33.7087 32.4974 33.0502 33.6695 31.8781C34.8416 30.706 35.5001 29.1163 35.5001 27.4587V17.5837L39.6667 15.2503V21.2087C39.6667 21.7612 39.8862 22.2911 40.2769 22.6818C40.6676 23.0725 41.1975 23.292 41.7501 23.292C42.3026 23.292 42.8325 23.0725 43.2232 22.6818C43.6139 22.2911 43.8334 21.7612 43.8334 21.2087V14.042C43.8328 13.6728 43.734 13.3105 43.5473 12.992C43.3607 12.6735 43.0927 12.4104 42.7709 12.2295ZM31.3334 27.4587C31.3334 28.0112 31.1139 28.5411 30.7232 28.9318C30.3325 29.3225 29.8026 29.542 29.2501 29.542H12.5834C12.0309 29.542 11.501 29.3225 11.1103 28.9318C10.7196 28.5411 10.5001 28.0112 10.5001 27.4587V19.8962L19.8959 25.1045L20.2084 25.2295H20.3959C20.5688 25.2513 20.7438 25.2513 20.9167 25.2295C21.0897 25.2513 21.2646 25.2513 21.4376 25.2295H21.6251C21.7357 25.2062 21.8414 25.1639 21.9376 25.1045L31.3334 19.8962V27.4587ZM20.9167 20.917L6.45839 12.8753L20.9167 4.83366L35.3751 12.8753L20.9167 20.917Z" fill="white"/>
</svg>
