<svg width="64" height="54" viewBox="0 0 64 54" fill="none" xmlns="http://www.w3.org/2000/svg">
    <path
        d="M61.6 29.5V21.2C63.2 20.4 64 19.1 64 17.2C64 15.6 62.9 14 61.3 13.2L33.9 0.700012C32.8 0.200012 31.5 0.200012 30.4 0.700012L2.7 12.9C1.1 13.7 0 15 0 16.9C0 18.5 1.1 20.1 2.7 20.9L11 24.6V38.7C11 47 17.7 53.6 25.9 53.6H36C44.3 53.6 50.9 46.9 50.9 38.7V26L56.2 23.6V29.7L54.3 31.6C54 31.9 54 32.1 54.3 32.4L58.6 36.7C58.9 37 59.1 37 59.4 36.7L63.7 32.4C64 32.1 64 31.9 63.7 31.6L61.6 29.5ZM32.3 5.70001L57.4 16.9L32.3 28.4L6.9 16.9L32.3 5.70001ZM46 38.8C46 44.1 41.3 48.4 36 48.4H25.9C20.6 48.4 16.3 44.1 16.3 38.8V27.1L30.7 33.5C31.2 33.8 31.8 33.8 32.6 33.8C33.1 33.8 33.7 33.8 34.5 33.5L46 28.4V38.8Z"
        fill="#36ccc4" />
</svg>