<svg width="42" height="42" viewBox="0 0 42 42" fill="none" xmlns="http://www.w3.org/2000/svg">
<path d="M11.5833 29.3332C12.4121 29.3332 13.207 29.0039 13.793 28.4179C14.3791 27.8318 14.7083 27.037 14.7083 26.2082C14.7185 26.1043 14.7185 25.9996 14.7083 25.8957L20.5208 20.0832H21H21.4792L24.8333 23.4373C24.8333 23.4373 24.8333 23.5415 24.8333 23.604C24.8333 24.4328 25.1626 25.2277 25.7486 25.8137C26.3347 26.3998 27.1295 26.729 27.9583 26.729C28.7871 26.729 29.582 26.3998 30.168 25.8137C30.7541 25.2277 31.0833 24.4328 31.0833 23.604V23.4373L38.6667 15.7915C39.2847 15.7915 39.8889 15.6082 40.4028 15.2648C40.9167 14.9215 41.3173 14.4334 41.5538 13.8624C41.7903 13.2914 41.8522 12.663 41.7316 12.0568C41.611 11.4507 41.3134 10.8938 40.8764 10.4568C40.4393 10.0198 39.8825 9.72213 39.2763 9.60155C38.6701 9.48097 38.0418 9.54286 37.4708 9.77938C36.8998 10.0159 36.4117 10.4164 36.0683 10.9303C35.7249 11.4443 35.5417 12.0484 35.5417 12.6665C35.5315 12.7704 35.5315 12.8751 35.5417 12.979L28.0208 20.4998H27.6875L24.0833 16.8332C24.0833 16.0044 23.7541 15.2095 23.168 14.6235C22.582 14.0374 21.7871 13.7082 20.9583 13.7082C20.1295 13.7082 19.3347 14.0374 18.7486 14.6235C18.1626 15.2095 17.8333 16.0044 17.8333 16.8332L11.5833 23.0832C10.7545 23.0832 9.95967 23.4124 9.37362 23.9985C8.78757 24.5845 8.45833 25.3794 8.45833 26.2082C8.45833 27.037 8.78757 27.8318 9.37362 28.4179C9.95967 29.0039 10.7545 29.3332 11.5833 29.3332ZM39.7083 37.6665H4.29167V2.24984C4.29167 1.6973 4.07217 1.1674 3.68147 0.776698C3.29077 0.385997 2.76087 0.166504 2.20833 0.166504C1.6558 0.166504 1.12589 0.385997 0.735194 0.776698C0.344493 1.1674 0.125 1.6973 0.125 2.24984V39.7498C0.125 40.3024 0.344493 40.8323 0.735194 41.223C1.12589 41.6137 1.6558 41.8332 2.20833 41.8332H39.7083C40.2609 41.8332 40.7908 41.6137 41.1815 41.223C41.5722 40.8323 41.7917 40.3024 41.7917 39.7498C41.7917 39.1973 41.5722 38.6674 41.1815 38.2767C40.7908 37.886 40.2609 37.6665 39.7083 37.6665Z" fill="white"/>
</svg>
