<svg width="64" height="64" viewBox="0 0 64 64" fill="none" xmlns="http://www.w3.org/2000/svg">
    <path
        d="M56.2001 34.6H53.5V8.5C53.5 4 50 0.3 45.5 0H45.2001H12.5C5.90005 0 0.300049 5.6 0.300049 12.8V17.3C0.300049 19.4 2.20005 21.3 4.60005 21.3H11V49C11 52.7 14.2001 55.9 18.2001 55.9H21.7001V61C21.7001 62.1 22.2 63.1 23.3 63.7C23.8 64 24.4 64 24.6 64C25.1 64 25.7001 63.7 26.2001 63.5L30.7001 60.6L35.6 63.6C36.7 64.1 37.7001 64.1 38.5 63.6C39.3 63.1 39.7001 62.2 39.7001 61.1V56H47.7001H55.7001C60.2001 56 63.7001 52.5 63.7001 48V42.7C64.2001 38.1 60.7001 34.6 56.2001 34.6ZM5.60005 12.8C5.60005 8.5 8.80005 5.3 12.5 5.3H35.7001C35.2001 6.6 34.9001 8 34.9001 9.3V16H5.60005V12.8ZM30.9 44.7C27.2 44.7 24.2001 41.8 24.2001 38.3C24.2001 34.8 27.1 31.9 30.9 31.9C34.7001 31.9 37.6 34.8 37.6 38.3C37.6 41.8 34.6 44.7 30.9 44.7ZM32.8 55.4C31.7 54.6 30.1 54.6 29.1 55.4L27 56.7V49.2C28.3 49.7 29.7001 50 31 50C32.3 50 33.7001 49.7 35 49.2V56.7L32.8 55.4ZM40.2001 50.6V45.5C41.8 43.4 42.9001 41 42.9001 38.3C42.9001 31.9 37.6 26.6 30.9 26.6C24.2001 26.6 18.9 31.9 18.9 38.3C18.9 41 20 43.6 21.6 45.8V50.6H18.1C17 50.6 16.2 49.8 16.2 49V21.3H36C38.4001 21.3 40.3 19.4 40.3 17V9.3C40.3 7.2 41.9001 5.3 43.5 5.3H45C46.9001 5.3 48.2001 6.6 48.2001 8.5V34.6V47.9V50.6H40.2001ZM58.9001 47.9C58.9001 49.5 57.8 50.6 56.2001 50.6H53.5V47.9V39.9H56.2001C57.8 39.9 58.9001 41 58.9001 42.6V47.9Z"
        fill="#36ccc4" />
</svg>