<svg width="42" height="50" viewBox="0 0 42 50" fill="none" xmlns="http://www.w3.org/2000/svg">
<path d="M40.1405 15.2344L24.1249 1.25C22.2499 -0.390625 19.5155 -0.390625 17.8749 1.25L1.85925 15.2344C0.843628 16.25 0.218628 17.5 0.218628 18.9844V45.2344C0.218628 47.9688 2.328 50 4.98425 50H12.0936C14.828 50 16.8593 47.8906 16.8593 45.2344V36.0156C16.8593 35.625 17.0936 35.3906 17.4843 35.3906H24.5936C24.9843 35.3906 25.2186 35.625 25.2186 36.0156V45.1562C25.2186 47.8906 27.328 49.9219 29.9843 49.9219H37.0936C39.828 49.9219 41.8593 47.8125 41.8593 45.1562V18.9844C41.8593 17.5 41.2343 16.25 40.1405 15.2344ZM37.6405 45.2344C37.6405 45.625 37.4061 45.8594 37.0155 45.8594H29.9061C29.5155 45.8594 29.2811 45.625 29.2811 45.2344V36.0156C29.2811 33.2812 27.1718 31.25 24.5155 31.25H17.4061C14.6718 31.25 12.6405 33.3594 12.6405 36.0156V45.1562C12.6405 45.5469 12.4061 45.7812 12.0155 45.7812H4.90613C4.5155 45.7812 4.28113 45.5469 4.28113 45.1562V18.9844C4.28113 18.75 4.28113 18.5938 4.5155 18.5938L20.6093 4.60938C20.8436 4.375 21.2343 4.375 21.4686 4.60938L37.4842 18.5938C37.7186 18.5938 37.7186 18.8281 37.7186 18.9844V45.2344H37.6405Z" fill="#2977E8"/>
<path d="M19.0469 15.2339C19.0469 14.1552 19.9213 13.2808 21 13.2808C22.0787 13.2808 22.9531 14.1552 22.9531 15.2339V24.6089C22.9531 25.6876 22.0787 26.562 21 26.562C19.9213 26.562 19.0469 25.6876 19.0469 24.6089V15.2339Z" fill="#2977E8"/>
<path d="M25.6875 17.9683C26.7662 17.9683 27.6406 18.8427 27.6406 19.9214C27.6406 21.0001 26.7662 21.8745 25.6875 21.8745L16.3125 21.8745C15.2338 21.8745 14.3594 21.0001 14.3594 19.9214C14.3594 18.8427 15.2338 17.9683 16.3125 17.9683L25.6875 17.9683Z" fill="#2977E8"/>
</svg>
