<svg width="50" height="50" viewBox="0 0 50 50" fill="none" xmlns="http://www.w3.org/2000/svg">
<g clip-path="url(#clip0)">
<path d="M40.4708 9.80833C39.3187 7.5125 37.5396 6.25 35.4625 6.25C33.0021 6.25 30.6312 8.07917 29.9979 10.9896C29.7167 12.2521 30.6812 13.4625 31.9854 13.4625C32.9417 13.4625 33.7792 12.7875 33.9813 11.8583C34.1604 11.0396 34.6833 10.3729 35.5333 10.3229C35.9833 10.3229 36.3917 10.7021 36.7417 11.4521C37.1042 12.225 41.1167 20.125 42.5271 23.1729C41.0812 22.3167 39.2521 21.7042 36.9688 21.7042C32.2875 21.7042 28.2083 24.6187 26.6396 28.9354C26.0875 28.7312 25.5104 28.6229 24.9375 28.6229C24.3979 28.6229 23.8583 28.7188 23.3396 28.8979C21.7562 24.6042 17.6812 21.7042 13.0292 21.7042C10.7458 21.7042 8.91458 22.3167 7.47083 23.1729C8.89583 20.0938 12.9021 12.2063 13.2542 11.4542C13.6062 10.7063 14.0125 10.325 14.4625 10.325C15.2979 10.3708 15.8375 11.0438 16.0187 11.8646C16.2188 12.7896 17.0562 13.4646 18.0104 13.4646C19.3188 13.4646 20.2792 12.2521 20 10.9917C19.3792 8.12917 17.05 6.25 14.5396 6.25C12.4625 6.25 10.6833 7.5125 9.53125 9.80833C9.43542 9.99583 0 28.2833 0 30.6875C0 32.0292 0.852083 33.1729 2.03958 33.5937C2.48333 39.2687 7.24375 43.75 13.0312 43.75C17.75 43.75 22.4271 40.7875 23.825 34.6812C24.2375 32.8896 24.4125 32.6937 24.9396 32.6937C25.5646 32.6937 25.7646 33.0333 26.2021 34.8208C27.6542 40.8 32.2667 43.75 36.9708 43.75C42.7583 43.75 47.5167 39.2687 47.9604 33.5937C49.1479 33.1729 50 32.0292 50 30.6875C50 28.2583 40.5667 9.99583 40.4708 9.80833ZM36.9708 39.6708C33.1396 39.6708 30.025 36.5542 30.025 32.725C30.025 28.8958 33.1396 25.7792 36.9708 25.7792C40.8021 25.7792 43.9187 28.8958 43.9187 32.725C43.9187 36.5542 40.8021 39.6708 36.9708 39.6708ZM13.0312 39.6708C9.2 39.6708 6.08125 36.5542 6.08125 32.725C6.08125 28.8958 9.2 25.7792 13.0312 25.7792C16.8625 25.7792 19.9771 28.8958 19.9771 32.725C19.9771 36.5542 16.8625 39.6708 13.0312 39.6708ZM35.2854 28.1812C38.9792 26.8042 42.6583 30.1437 41.6646 33.9333C40.7687 31.0042 38.3375 28.7583 35.2854 28.1812ZM8.2125 33.9333C7.21875 30.1437 10.8979 26.8042 14.5917 28.1812C11.5396 28.7583 9.10833 31.0042 8.2125 33.9333Z" fill="white"/>
</g>
<defs>
<clipPath id="clip0">
<rect width="50" height="50" fill="white"/>
</clipPath>
</defs>
</svg>
