<svg id="Слой_1" data-name="Слой 1" xmlns="http://www.w3.org/2000/svg" viewBox="0 0 510 510"><title>Безымянный-2</title><path d="M223.46,204.21c-6,24.53-21.52,45-31,68.11a163.07,163.07,0,0,0-10.64,43.74c-1.32,17.83-3,35.65-4.28,53.48-1,12.4-2,24.84-.84,37.27,1.26,15.9,6.12,31.33,6.42,47.36.12,10.64-.77,22-7.8,30.54-21.62,28.46-71.68,28.51-91.87-1.65C72.1,468,70.61,448.21,72.77,430c.89-6.19,1.3-12.5,4.21-18.18h0c-2.89,32.88,1.3,78.9,41.1,86.37,39.92,6.44,65.19-19,60.47-58.86-5.33-67.14-16.15-142.32,24.59-201,7-11.23,14.64-22,19.82-34.27Z" style="fill:#141515"/><path d="M62.54,261.6c-4-15.53-8.51-30.91-12.3-46.5-4.18-18.46-4.61-37.57-5.91-56.39C43,125.91,49.53,94.86,65.62,66c22.8-42.53,62.52-80.42,112.17-52.1,14.48,8.28,26.05,21.27,31.19,37.3-7-9.11-13.65-18.74-23.63-24.86-5-3.13-9.93-6.33-15.12-9.08-17.84-9.89-40.29-7.93-57.34,2.76-20.7,13.43-34.38,35.2-45.5,56.71C42.68,125.43,50.06,182,60,233.63a112.55,112.55,0,0,1,2.71,27.93Z" style="fill:#111212"/><path d="M173.16,428.58c-5.76-10.51-11-21.31-18.07-31-6.66-10.2-11-21.66-15.12-33.07-12.36-37.26-5.58-79.92,16.25-112.34,17.65-26.57,44.27-45.52,63-71.21A135.87,135.87,0,0,0,232,158.57c2-4.43,3.85-9,5.77-13.46a3.35,3.35,0,0,1,1.24-1.64c-2.24,14.8-8.82,28.7-16.94,41.16A108.21,108.21,0,0,1,211,198.26c-14.28,14.64-29.1,28.83-42.21,44.56-28.35,33.43-38.7,82.18-23.3,123.6a253.58,253.58,0,0,0,13.09,29.2c5.4,10.72,12.43,20.85,15,32.74Z" style="fill:#7dc2c2"/><path d="M275.1,344.76a2.77,2.77,0,0,1-.4,1.51,3.06,3.06,0,0,1-1.08,1,5.15,5.15,0,0,1-1.44.56,8.05,8.05,0,0,1-1.73.18h-6.22v-.78l.57-.05a2.43,2.43,0,0,0,.51-.1.84.84,0,0,0,.49-.37,1.32,1.32,0,0,0,.16-.7v-7.63a1.2,1.2,0,0,0-.16-.66,1.13,1.13,0,0,0-.51-.42,2.78,2.78,0,0,0-.6-.19l-.54-.07v-.79h5.9a9.91,9.91,0,0,1,1.69.13,4.81,4.81,0,0,1,1.39.42,2.46,2.46,0,0,1,1,.84,2.29,2.29,0,0,1,.34,1.28,2.43,2.43,0,0,1-.73,1.87,3.85,3.85,0,0,1-1.93.93v.14a6.13,6.13,0,0,1,1.2.27,3.88,3.88,0,0,1,1.06.52,2.84,2.84,0,0,1,.76.86A2.47,2.47,0,0,1,275.1,344.76Zm-3-5.73a1.86,1.86,0,0,0-.22-1,1.59,1.59,0,0,0-.59-.59,2.24,2.24,0,0,0-.82-.3,6,6,0,0,0-.95-.07h-.68l-.66,0v4.3h1.15a4.5,4.5,0,0,0,1.38-.19,1.92,1.92,0,0,0,.84-.52A1.65,1.65,0,0,0,272,340,3.19,3.19,0,0,0,272.08,339Zm.64,5.55a2,2,0,0,0-.77-1.65,3.52,3.52,0,0,0-2.23-.61l-1,0-.56,0v3.88a.81.81,0,0,0,.39.72,2.18,2.18,0,0,0,1.21.26,4,4,0,0,0,1.46-.23,2.12,2.12,0,0,0,.93-.62,2.32,2.32,0,0,0,.45-.83A3.74,3.74,0,0,0,272.72,344.58Z" style="fill:#1d1d1b"/><path d="M282.13,348.35a5,5,0,0,1-4-1.69,7.61,7.61,0,0,1-1.05-6.86,6.35,6.35,0,0,1,1.13-2,5.3,5.3,0,0,1,4.07-1.88,4.54,4.54,0,0,1,2.82.83,2.7,2.7,0,0,1,1.08,2.26,1.92,1.92,0,0,1-.28,1,1,1,0,0,1-.95.46,1.6,1.6,0,0,1-1.09-.35,1.1,1.1,0,0,1-.38-.8,4.26,4.26,0,0,1,.14-1.1c.09-.38.15-.65.17-.82a1.07,1.07,0,0,0-.64-.5,3.34,3.34,0,0,0-.91-.12,2.58,2.58,0,0,0-1.09.24,2.74,2.74,0,0,0-1,.9,4.73,4.73,0,0,0-.72,1.61,9.5,9.5,0,0,0-.27,2.42,6.19,6.19,0,0,0,1,3.62,3,3,0,0,0,2.58,1.4,3.24,3.24,0,0,0,1.93-.56,5.5,5.5,0,0,0,1.45-1.69l.76.5a6.09,6.09,0,0,1-2.07,2.23A4.88,4.88,0,0,1,282.13,348.35Z" style="fill:#1d1d1b"/><path d="M298.06,345.28a6.23,6.23,0,0,1-2,2.24,5,5,0,0,1-2.85.83,5.71,5.71,0,0,1-2.49-.5,4.87,4.87,0,0,1-1.76-1.36,5.84,5.84,0,0,1-1-2,8.33,8.33,0,0,1-.34-2.42,7.21,7.21,0,0,1,.36-2.25,6.48,6.48,0,0,1,1.07-2,5.13,5.13,0,0,1,1.69-1.36A4.79,4.79,0,0,1,293,336a5.4,5.4,0,0,1,2.2.41,3.84,3.84,0,0,1,1.49,1.11,4.36,4.36,0,0,1,.82,1.57,6.85,6.85,0,0,1,.27,2v.78H290a9.7,9.7,0,0,0,.22,2.11,5.07,5.07,0,0,0,.7,1.66,3.29,3.29,0,0,0,1.22,1.09,3.7,3.7,0,0,0,1.79.4,3.34,3.34,0,0,0,1.83-.49,5,5,0,0,0,1.48-1.8Zm-6.17-13.5a1.44,1.44,0,0,1-.41,1,1.32,1.32,0,0,1-1,.43,1.3,1.3,0,0,1-1-.43,1.4,1.4,0,0,1-.41-1,1.43,1.43,0,0,1,.41-1,1.3,1.3,0,0,1,1-.43,1.32,1.32,0,0,1,1,.43A1.47,1.47,0,0,1,291.89,331.78Zm3.53,9a10.38,10.38,0,0,0-.11-1.42,4.43,4.43,0,0,0-.37-1.28,2.4,2.4,0,0,0-.75-.89,2.06,2.06,0,0,0-1.23-.34,2.55,2.55,0,0,0-2.08,1,4.87,4.87,0,0,0-.9,2.89Zm1.6-9a1.44,1.44,0,0,1-.41,1,1.33,1.33,0,0,1-1,.43,1.3,1.3,0,0,1-1-.43,1.41,1.41,0,0,1-.42-1,1.43,1.43,0,0,1,.42-1,1.3,1.3,0,0,1,1-.43,1.33,1.33,0,0,1,1,.43A1.47,1.47,0,0,1,297,331.78Z" style="fill:#1d1d1b"/><path d="M315.85,344.76a2.85,2.85,0,0,1-.39,1.51,3.09,3.09,0,0,1-1.09,1,5.15,5.15,0,0,1-1.44.56,8,8,0,0,1-1.73.18H305v-.78l.56-.05a2.19,2.19,0,0,0,.51-.1.87.87,0,0,0,.5-.37,1.42,1.42,0,0,0,.16-.7v-7.63a1.2,1.2,0,0,0-.17-.66,1.1,1.1,0,0,0-.5-.42,3.17,3.17,0,0,0-.6-.19l-.55-.07v-.79h5.91a9.88,9.88,0,0,1,1.68.13,4.63,4.63,0,0,1,1.39.42,2.39,2.39,0,0,1,1,.84,2.29,2.29,0,0,1,.35,1.28,2.44,2.44,0,0,1-.74,1.87,3.81,3.81,0,0,1-1.92.93v.14a6.48,6.48,0,0,1,1.2.27,4,4,0,0,1,1.05.52,2.87,2.87,0,0,1,.77.86A2.47,2.47,0,0,1,315.85,344.76Zm-3-5.73a1.86,1.86,0,0,0-.22-1,1.56,1.56,0,0,0-.58-.59,2.36,2.36,0,0,0-.83-.3,5.9,5.9,0,0,0-.95-.07h-.68l-.66,0v4.3h1.15a4.5,4.5,0,0,0,1.38-.19,1.9,1.9,0,0,0,.85-.52,1.65,1.65,0,0,0,.42-.74A3.55,3.55,0,0,0,312.83,339Zm.65,5.55a2,2,0,0,0-.78-1.65,3.51,3.51,0,0,0-2.22-.61l-1,0-.57,0v3.88a.8.8,0,0,0,.4.72,2.14,2.14,0,0,0,1.2.26A3.93,3.93,0,0,0,312,347a2.12,2.12,0,0,0,.93-.62,2,2,0,0,0,.45-.83A3.35,3.35,0,0,0,313.48,344.58Z" style="fill:#1d1d1b"/><path d="M333.54,340.05h-.73a6.57,6.57,0,0,0-.31-.78,8.69,8.69,0,0,0-.46-.86,4,4,0,0,0-.59-.78,1.17,1.17,0,0,0-.69-.39c-.24,0-.52,0-.82-.05s-.56,0-.78,0v8.75a1.26,1.26,0,0,0,.17.67,1.06,1.06,0,0,0,.5.4,2.63,2.63,0,0,0,.6.18l.65.09V348h-6v-.78l.63-.05a2.56,2.56,0,0,0,.57-.1.81.81,0,0,0,.49-.37,1.32,1.32,0,0,0,.17-.7v-8.87l-.86,0c-.32,0-.57,0-.75,0a1.11,1.11,0,0,0-.67.39,5.5,5.5,0,0,0-.61.78,6.31,6.31,0,0,0-.46.9,7.14,7.14,0,0,0-.3.74h-.73v-3.77h11Z" style="fill:#1d1d1b"/><path d="M345.38,344.76a2.77,2.77,0,0,1-.4,1.51,3.06,3.06,0,0,1-1.08,1,5.15,5.15,0,0,1-1.44.56,8.05,8.05,0,0,1-1.73.18h-6.22v-.78l.57-.05a2.3,2.3,0,0,0,.51-.1.84.84,0,0,0,.49-.37,1.32,1.32,0,0,0,.16-.7v-7.63a1.2,1.2,0,0,0-.16-.66,1.15,1.15,0,0,0-.5-.42,3,3,0,0,0-.61-.19l-.54-.07v-.79h5.9a9.91,9.91,0,0,1,1.69.13,4.81,4.81,0,0,1,1.39.42,2.46,2.46,0,0,1,1,.84,2.29,2.29,0,0,1,.34,1.28,2.43,2.43,0,0,1-.73,1.87,3.85,3.85,0,0,1-1.93.93v.14a6.13,6.13,0,0,1,1.2.27,3.88,3.88,0,0,1,1.06.52,2.71,2.71,0,0,1,.76.86A2.47,2.47,0,0,1,345.38,344.76Zm-3-5.73a1.86,1.86,0,0,0-.22-1,1.59,1.59,0,0,0-.59-.59,2.24,2.24,0,0,0-.82-.3,5.9,5.9,0,0,0-1-.07h-.68l-.66,0v4.3h1.15a4.5,4.5,0,0,0,1.38-.19,1.92,1.92,0,0,0,.84-.52,1.77,1.77,0,0,0,.43-.74A3.55,3.55,0,0,0,342.36,339Zm.64,5.55a2,2,0,0,0-.77-1.65,3.52,3.52,0,0,0-2.23-.61l-1,0-.57,0v3.88a.81.81,0,0,0,.39.72,2.18,2.18,0,0,0,1.21.26,4,4,0,0,0,1.46-.23,2.12,2.12,0,0,0,.93-.62,2.18,2.18,0,0,0,.45-.83A3.74,3.74,0,0,0,343,344.58Z" style="fill:#1d1d1b"/><path d="M358.44,342a7.83,7.83,0,0,1-.39,2.44,5.91,5.91,0,0,1-1.12,2,5.46,5.46,0,0,1-1.91,1.42,6.17,6.17,0,0,1-2.44.46,5.55,5.55,0,0,1-2.14-.42,5.64,5.64,0,0,1-1.8-1.24,5.85,5.85,0,0,1-1.23-1.95,6.78,6.78,0,0,1-.46-2.58,6.41,6.41,0,0,1,1.6-4.51,5.89,5.89,0,0,1,8.29-.09A6.12,6.12,0,0,1,358.44,342Zm-2.47,0a10.53,10.53,0,0,0-.17-1.89,5.89,5.89,0,0,0-.54-1.69,3.36,3.36,0,0,0-1-1.19,2.57,2.57,0,0,0-1.51-.44,2.67,2.67,0,0,0-1.57.45,3.31,3.31,0,0,0-1.06,1.24,5.58,5.58,0,0,0-.54,1.66,11.3,11.3,0,0,0-.15,1.8,11.72,11.72,0,0,0,.18,2.12,6.08,6.08,0,0,0,.59,1.73,3.36,3.36,0,0,0,1,1.2,2.58,2.58,0,0,0,1.53.43,2.66,2.66,0,0,0,2.36-1.44A7.71,7.71,0,0,0,356,342.07Z" style="fill:#1d1d1b"/><path d="M373.23,348h-5.72v-.78l.57-.05a2.43,2.43,0,0,0,.51-.1.92.92,0,0,0,.51-.37,1.23,1.23,0,0,0,.18-.7v-6.18l-5.42,5.86v.2a1.26,1.26,0,0,0,.17.67,1.06,1.06,0,0,0,.5.4,2.62,2.62,0,0,0,.56.18,5.58,5.58,0,0,0,.61.09V348H360v-.78l.57-.05a2.21,2.21,0,0,0,.5-.1.87.87,0,0,0,.5-.37,1.42,1.42,0,0,0,.16-.7v-7.63a1.2,1.2,0,0,0-.17-.66,1.1,1.1,0,0,0-.5-.42,3.17,3.17,0,0,0-.6-.19l-.54-.07v-.79h5.71v.79l-.6.06-.48.08a.82.82,0,0,0-.49.38,1.37,1.37,0,0,0-.16.7v6.08l5.41-5.87a1.4,1.4,0,0,0-.16-.77,1.16,1.16,0,0,0-.51-.4,2.86,2.86,0,0,0-.61-.19l-.55-.07v-.79h5.71v.79l-.6.06-.48.08a.82.82,0,0,0-.49.38,1.37,1.37,0,0,0-.16.7v7.63a1.42,1.42,0,0,0,.14.67,1,1,0,0,0,.49.4,2.45,2.45,0,0,0,.54.18,6,6,0,0,0,.61.09Z" style="fill:#1d1d1b"/><path d="M386.08,348h-5.39v-.78l.91-.12c.25,0,.38-.15.38-.31a.81.81,0,0,0-.12-.34l-.24-.42-.82-1.24c-.34-.52-.77-1.15-1.27-1.87-.41.52-.8,1-1.15,1.51s-.71,1-1.09,1.56a2,2,0,0,0-.18.3.64.64,0,0,0-.09.28c0,.18.12.32.34.44a3.09,3.09,0,0,0,1,.23V348H374v-.74a4.59,4.59,0,0,0,1.31-.58,4.21,4.21,0,0,0,.91-.84l1-1.31c.45-.56,1-1.32,1.72-2.28l-1.49-2.12-1.45-2.08a2.65,2.65,0,0,0-.71-.74,2,2,0,0,0-1.13-.28v-.79h5.12v.79a6.3,6.3,0,0,0-.75.05c-.25,0-.37.1-.37.21a.44.44,0,0,0,.07.24,3.31,3.31,0,0,0,.18.29l.82,1.25c.37.56.76,1.16,1.19,1.79l1-1.34c.37-.51.71-1,1-1.45l.1-.21a.67.67,0,0,0,0-.24c0-.17-.14-.3-.41-.4a4.57,4.57,0,0,0-.78-.21v-.77h4.34V337a4.92,4.92,0,0,0-1.43.57,3.4,3.4,0,0,0-.87.76c-.27.32-.58.73-.94,1.2l-1.52,2c.72,1,1.31,1.85,1.76,2.5s.91,1.32,1.37,2a3.27,3.27,0,0,0,.77.83,2.25,2.25,0,0,0,1.17.36Z" style="fill:#1d1d1b"/><path d="M398.06,348.35a5,5,0,0,1-4-1.69,6.77,6.77,0,0,1-1.44-4.54,7,7,0,0,1,.38-2.32,6.56,6.56,0,0,1,1.13-2,5.24,5.24,0,0,1,1.77-1.36,5.12,5.12,0,0,1,2.31-.52,4.51,4.51,0,0,1,2.81.83,2.68,2.68,0,0,1,1.09,2.26,1.92,1.92,0,0,1-.29,1,1,1,0,0,1-.94.46,1.59,1.59,0,0,1-1.09-.35,1.08,1.08,0,0,1-.39-.8,4.28,4.28,0,0,1,.15-1.1,5.84,5.84,0,0,0,.16-.82,1,1,0,0,0-.63-.5,3.39,3.39,0,0,0-.91-.12,2.55,2.55,0,0,0-1.09.24,2.76,2.76,0,0,0-1,.9,4.93,4.93,0,0,0-.71,1.61,9.5,9.5,0,0,0-.27,2.42,6.12,6.12,0,0,0,1,3.62,3,3,0,0,0,2.58,1.4,3.24,3.24,0,0,0,1.93-.56A5.64,5.64,0,0,0,402,344.8l.76.5a6.2,6.2,0,0,1-2.08,2.23A4.83,4.83,0,0,1,398.06,348.35Z" style="fill:#1d1d1b"/><path d="M413.92,340.05h-.73a6.57,6.57,0,0,0-.31-.78,7,7,0,0,0-.46-.86,4,4,0,0,0-.59-.78,1.17,1.17,0,0,0-.69-.39c-.24,0-.52,0-.82-.05s-.56,0-.78,0v8.75a1.26,1.26,0,0,0,.17.67,1.06,1.06,0,0,0,.5.4,2.63,2.63,0,0,0,.6.18l.65.09V348h-6v-.78l.63-.05a2.56,2.56,0,0,0,.57-.1.81.81,0,0,0,.49-.37,1.32,1.32,0,0,0,.17-.7v-8.87l-.86,0c-.32,0-.57,0-.75,0a1.11,1.11,0,0,0-.67.39,5.24,5.24,0,0,0-1.07,1.68,7.14,7.14,0,0,0-.3.74H403v-3.77h11Z" style="fill:#1d1d1b"/><path d="M426.34,342a7.83,7.83,0,0,1-.39,2.44,5.91,5.91,0,0,1-1.12,2,5.46,5.46,0,0,1-1.91,1.42,6.17,6.17,0,0,1-2.44.46,5.55,5.55,0,0,1-2.14-.42,5.64,5.64,0,0,1-1.8-1.24,5.7,5.7,0,0,1-1.23-1.95,6.78,6.78,0,0,1-.46-2.58,6.41,6.41,0,0,1,1.6-4.51,5.89,5.89,0,0,1,8.29-.09A6.12,6.12,0,0,1,426.34,342Zm-2.47,0a10.57,10.57,0,0,0-.18-1.89,5.6,5.6,0,0,0-.53-1.69,3.36,3.36,0,0,0-1-1.19,2.57,2.57,0,0,0-1.51-.44,2.67,2.67,0,0,0-1.57.45,3.31,3.31,0,0,0-1.06,1.24,5.31,5.31,0,0,0-.54,1.66,11.3,11.3,0,0,0-.15,1.8,11.72,11.72,0,0,0,.18,2.12,6.08,6.08,0,0,0,.59,1.73,3.36,3.36,0,0,0,1,1.2,2.58,2.58,0,0,0,1.53.43,2.66,2.66,0,0,0,2.36-1.44A7.71,7.71,0,0,0,423.87,342.07Z" style="fill:#1d1d1b"/><path d="M440.86,348h-5.74v-.78l.56-.05a2.33,2.33,0,0,0,.5-.1.92.92,0,0,0,.51-.37,1.23,1.23,0,0,0,.18-.7v-8.78h-5v8.66a1.26,1.26,0,0,0,.16.67,1.06,1.06,0,0,0,.5.4,2.45,2.45,0,0,0,.54.18,5.4,5.4,0,0,0,.6.09V348h-5.75v-.78l.57-.05a2.21,2.21,0,0,0,.5-.1.87.87,0,0,0,.5-.37,1.42,1.42,0,0,0,.16-.7v-7.63a1.2,1.2,0,0,0-.17-.66,1.1,1.1,0,0,0-.5-.42,3.17,3.17,0,0,0-.6-.19l-.54-.07v-.79h13v.79l-.61.06-.47.08a.79.79,0,0,0-.49.38,1.37,1.37,0,0,0-.16.7v7.63a1.31,1.31,0,0,0,.14.67.91.91,0,0,0,.49.4,2.45,2.45,0,0,0,.54.18l.6.09Z" style="fill:#1d1d1b"/><path d="M453.52,347.83l-1,.33a3.5,3.5,0,0,1-1,.12,2.36,2.36,0,0,1-1.49-.43,2,2,0,0,1-.7-1.27h-.08a5.74,5.74,0,0,1-1.66,1.31,4.7,4.7,0,0,1-2.14.45,3,3,0,0,1-2.18-.81,2.82,2.82,0,0,1-.85-2.12,3.55,3.55,0,0,1,.19-1.22,3.06,3.06,0,0,1,.57-1,2.85,2.85,0,0,1,.79-.63,6.43,6.43,0,0,1,.92-.45c.36-.14,1.08-.39,2.18-.75a16.42,16.42,0,0,0,2.21-.86v-1.18a4.3,4.3,0,0,0-.07-.6,2.27,2.27,0,0,0-.28-.83,2.33,2.33,0,0,0-.67-.77,2,2,0,0,0-1.24-.33,2.68,2.68,0,0,0-1,.19,1.94,1.94,0,0,0-.66.38,3.13,3.13,0,0,0,.12.71,3.9,3.9,0,0,1,.11.86,1,1,0,0,1-.38.76,1.47,1.47,0,0,1-1,.34,1,1,0,0,1-.88-.42,1.73,1.73,0,0,1-.28-.95,1.71,1.71,0,0,1,.39-1.05,4,4,0,0,1,1-.89,5.83,5.83,0,0,1,1.3-.57,5.24,5.24,0,0,1,1.49-.23,9.92,9.92,0,0,1,1.75.14,3.27,3.27,0,0,1,1.35.59,2.73,2.73,0,0,1,.92,1.2,5.09,5.09,0,0,1,.32,1.95c0,1.13,0,2.14,0,3s0,1.84,0,2.88a1.43,1.43,0,0,0,.16.74,1.16,1.16,0,0,0,1.06.58h.79Zm-4.16-6.3c-.67.2-1.27.4-1.78.59a7.45,7.45,0,0,0-1.41.71,3.36,3.36,0,0,0-.95,1,2.45,2.45,0,0,0-.34,1.32,1.72,1.72,0,0,0,1.83,1.92,2.71,2.71,0,0,0,1.49-.41,4.29,4.29,0,0,0,1.09-1Z" style="fill:#1d1d1b"/><path d="M465.85,348h-5.39v-.78l.92-.12c.25,0,.37-.15.37-.31a.81.81,0,0,0-.12-.34q-.12-.23-.24-.42l-.81-1.24c-.35-.52-.77-1.15-1.28-1.87-.41.52-.79,1-1.14,1.51s-.72,1-1.1,1.56a2,2,0,0,0-.18.3.76.76,0,0,0-.08.28c0,.18.11.32.34.44a3,3,0,0,0,1,.23V348h-4.35v-.74a4.51,4.51,0,0,0,1.3-.58,4.21,4.21,0,0,0,.91-.84l1-1.31q.66-.84,1.71-2.28l-1.49-2.12-1.44-2.08a2.83,2.83,0,0,0-.72-.74,2,2,0,0,0-1.12-.28v-.79h5.11v.79a6.3,6.3,0,0,0-.75.05c-.24,0-.37.1-.37.21a.46.46,0,0,0,.08.24,1.81,1.81,0,0,0,.17.29l.82,1.25c.37.56.77,1.16,1.2,1.79l1-1.34c.37-.51.71-1,1-1.45a2.09,2.09,0,0,0,.1-.21.69.69,0,0,0,0-.24c0-.17-.14-.3-.42-.4a4.13,4.13,0,0,0-.78-.21v-.77h4.34V337a5,5,0,0,0-1.43.57,3.77,3.77,0,0,0-.87.76c-.26.32-.58.73-.94,1.2l-1.52,2c.73,1,1.31,1.85,1.77,2.5s.91,1.32,1.37,2a3,3,0,0,0,.77.83,2.21,2.21,0,0,0,1.16.36Z" style="fill:#1d1d1b"/><path d="M223,324.18H212.47v-1.27l1.25-.11a3.63,3.63,0,0,0,1.11-.21,1.52,1.52,0,0,0,.79-.65,2.29,2.29,0,0,0,.25-1.14V300.39H204.19V320.6a2.41,2.41,0,0,0,.21,1.06,1.71,1.71,0,0,0,.81.75,4.06,4.06,0,0,0,1.08.32,7.54,7.54,0,0,0,1.23.18v1.27H197v-1.27l1.25-.11a3.63,3.63,0,0,0,1.11-.21,1.52,1.52,0,0,0,.79-.65,2.27,2.27,0,0,0,.25-1.14V302.48a2.37,2.37,0,0,0-.23-1,1.56,1.56,0,0,0-.81-.74,6,6,0,0,0-1.17-.42,7.14,7.14,0,0,0-1.19-.21V298.8h26v1.27a8.66,8.66,0,0,0-1.23.16,10.38,10.38,0,0,0-1.08.27,1.26,1.26,0,0,0-.81.71,2.84,2.84,0,0,0-.21,1.1V320.6a2.41,2.41,0,0,0,.21,1.06,1.71,1.71,0,0,0,.81.75,4.18,4.18,0,0,0,1.08.32,7.54,7.54,0,0,0,1.23.18Z"/><path d="M246.61,301.8a12.47,12.47,0,0,1,2.63,4.23,15.32,15.32,0,0,1,.95,5.49,15.07,15.07,0,0,1-1,5.49,12.2,12.2,0,0,1-2.68,4.2,11.57,11.57,0,0,1-3.87,2.65,12.41,12.41,0,0,1-9.57-.06,11.44,11.44,0,0,1-3.86-2.77,12.45,12.45,0,0,1-2.53-4.21,15.18,15.18,0,0,1-.92-5.3,14.85,14.85,0,0,1,1-5.52,13.1,13.1,0,0,1,2.67-4.2,11.57,11.57,0,0,1,3.91-2.68,12,12,0,0,1,4.66-.93,12.15,12.15,0,0,1,4.76.95A11.44,11.44,0,0,1,246.61,301.8Zm-2.67,18a11.72,11.72,0,0,0,1.46-3.69,20.86,20.86,0,0,0,.46-4.59,21.16,21.16,0,0,0-.51-4.8,11.87,11.87,0,0,0-1.5-3.72,7.14,7.14,0,0,0-2.46-2.37,6.81,6.81,0,0,0-3.4-.85,6.49,6.49,0,0,0-3.65,1,7.56,7.56,0,0,0-2.45,2.63,12.38,12.38,0,0,0-1.33,3.68,23.18,23.18,0,0,0,0,9.09,11.72,11.72,0,0,0,1.47,3.68,7.16,7.16,0,0,0,2.43,2.46,7.21,7.21,0,0,0,7,0A7,7,0,0,0,243.94,319.8Z"/><path d="M263.32,315.88H252.66v-2.82h10.66Z"/><path d="M277.29,324.79a10.86,10.86,0,0,1-4.35-.9,11,11,0,0,1-3.69-2.57,12.48,12.48,0,0,1-2.54-4.11,15,15,0,0,1-.95-5.47,15.59,15.59,0,0,1,.93-5.52,13.05,13.05,0,0,1,2.57-4.27,11.44,11.44,0,0,1,3.85-2.74,12.23,12.23,0,0,1,8.13-.5,12.53,12.53,0,0,1,2.89,1.31l.74-1.22h1.43l.16,9.05H285a21.51,21.51,0,0,0-.86-2.87,11.05,11.05,0,0,0-1.34-2.62,6.56,6.56,0,0,0-2-1.91,5.26,5.26,0,0,0-2.7-.68,7,7,0,0,0-3.23.76,7.52,7.52,0,0,0-2.58,2.28,11.14,11.14,0,0,0-1.62,3.69,19.24,19.24,0,0,0-.59,5,15.44,15.44,0,0,0,.61,4.47,11.67,11.67,0,0,0,1.76,3.57,8.62,8.62,0,0,0,2.71,2.38,7.16,7.16,0,0,0,3.49.86,7.41,7.41,0,0,0,2.67-.46,6.76,6.76,0,0,0,2.1-1.21,9.59,9.59,0,0,0,1.58-1.78,9.77,9.77,0,0,0,1.1-2.19l1.35.65a11.15,11.15,0,0,1-4.08,5.39A11,11,0,0,1,277.29,324.79Z"/><path d="M309.81,305.69h-1.24a8.67,8.67,0,0,0-.58-1.53,13.68,13.68,0,0,0-.94-1.68,8.89,8.89,0,0,0-1.18-1.44,2.31,2.31,0,0,0-1.22-.7c-.37,0-.84-.09-1.4-.11s-1.08,0-1.56,0h-1V320.5a2.32,2.32,0,0,0,.25,1.08,1.67,1.67,0,0,0,.88.76,10.22,10.22,0,0,0,1.35.34,9.93,9.93,0,0,0,1.6.23v1.27h-12v-1.27c.34,0,.85-.07,1.53-.14a5.58,5.58,0,0,0,1.42-.27,1.68,1.68,0,0,0,.87-.67,2.11,2.11,0,0,0,.28-1.17V300.19h-1l-1.38,0c-.54,0-1.07.06-1.57.12a2.24,2.24,0,0,0-1.23.7,10.49,10.49,0,0,0-1.17,1.44,12.89,12.89,0,0,0-.95,1.71,10.8,10.8,0,0,0-.57,1.5h-1.25V298.8h22.13Z"/><path d="M332.69,316.7l-.48,7.48H311.14v-1.27c.36,0,.83-.07,1.43-.15a5.28,5.28,0,0,0,1.16-.24,1.64,1.64,0,0,0,.8-.7,2.35,2.35,0,0,0,.22-1.09V302.48a2.61,2.61,0,0,0-.2-1,1.48,1.48,0,0,0-.82-.74,5.67,5.67,0,0,0-1.3-.42,10.47,10.47,0,0,0-1.29-.21V298.8h19.64v6.12h-1.34a8.31,8.31,0,0,0-1.55-2.89,3.79,3.79,0,0,0-2.26-1.67c-.37-.05-.81-.09-1.33-.11s-1.09,0-1.75,0h-4V310.3h2.86a5.75,5.75,0,0,0,2-.26,2.65,2.65,0,0,0,1.12-.87,4.23,4.23,0,0,0,.67-1.38,8.46,8.46,0,0,0,.37-1.64h1.34v10h-1.34a8.58,8.58,0,0,0-.38-1.82,4.62,4.62,0,0,0-.66-1.39,2.65,2.65,0,0,0-1.26-.91,6.74,6.74,0,0,0-1.87-.21h-2.86v7.61a7.79,7.79,0,0,0,.16,1.8,1.71,1.71,0,0,0,.63,1,2.68,2.68,0,0,0,1.27.44,22,22,0,0,0,2.29.09h1.55a14.92,14.92,0,0,0,1.63-.07,8.44,8.44,0,0,0,1.41-.26,2,2,0,0,0,1-.51,11.28,11.28,0,0,0,1.73-2.6,16.69,16.69,0,0,0,1.15-2.57Z"/><path d="M340,300.29l-1.28-.22V298.8h20.18v1.27a8.48,8.48,0,0,0-1.23.16,10.38,10.38,0,0,0-1.08.27,1.26,1.26,0,0,0-.81.71,2.84,2.84,0,0,0-.21,1.1V320.6a2.41,2.41,0,0,0,.21,1.06,1.71,1.71,0,0,0,.81.75,4.06,4.06,0,0,0,1.08.32,7.54,7.54,0,0,0,1.23.18v1.27H348.4v-1.27l1.25-.11a3.63,3.63,0,0,0,1.11-.21,1.52,1.52,0,0,0,.79-.65,2.27,2.27,0,0,0,.25-1.14V300.3H345a63.15,63.15,0,0,1-.83,10.9,32.73,32.73,0,0,1-2.19,7.63,12.82,12.82,0,0,1-2.91,4.3,4.9,4.9,0,0,1-3.23,1.41,3.3,3.3,0,0,1-2.33-.76,2.38,2.38,0,0,1-.82-1.78,2.66,2.66,0,0,1,.53-1.54,1.74,1.74,0,0,1,1.51-.75,2.47,2.47,0,0,1,1.2.27,3.15,3.15,0,0,1,.82.62,5.71,5.71,0,0,1,.57.75c.16.25.29.46.4.61a7.81,7.81,0,0,0,1.52-1.91,19.19,19.19,0,0,0,1.66-3.81,38,38,0,0,0,1.34-5.22,35.09,35.09,0,0,0,.56-6.53,10.18,10.18,0,0,0-.24-2.57,1.86,1.86,0,0,0-1-1.22A5.89,5.89,0,0,0,340,300.29Z"/><path d="M382.72,316.7a7.25,7.25,0,0,1-.76,3.37,6.69,6.69,0,0,1-2,2.36,8.85,8.85,0,0,1-2.75,1.31,11.1,11.1,0,0,1-3.15.44H362v-1.27c.28,0,.7-.07,1.25-.15a4.72,4.72,0,0,0,1.18-.28,1.61,1.61,0,0,0,.79-.67,2.28,2.28,0,0,0,.23-1.08V302.56a2.6,2.6,0,0,0-.21-1.08,1.54,1.54,0,0,0-.81-.75,6.85,6.85,0,0,0-1.15-.42,6.21,6.21,0,0,0-1.23-.24V298.8h10.75v1.27a8.15,8.15,0,0,0-1.31.18,11.16,11.16,0,0,0-1.18.28,1.36,1.36,0,0,0-.83.74,2.72,2.72,0,0,0-.22,1.11v7.21l1.75,0,1.7,0a19,19,0,0,1,3.84.37,9.7,9.7,0,0,1,3.21,1.22,6.18,6.18,0,0,1,2.17,2.23A6.64,6.64,0,0,1,382.72,316.7Zm-4.44-.3a4.87,4.87,0,0,0-1.64-3.87,6.31,6.31,0,0,0-4.33-1.44l-2,0-1.1.05v9.3a2.08,2.08,0,0,0,.7,1.74,4.61,4.61,0,0,0,2.75.57,5.22,5.22,0,0,0,4.15-1.64A7,7,0,0,0,378.28,316.4Z"/><path d="M409.13,324.18h-7c-.49-1.38-1-2.65-1.44-3.79s-.94-2.25-1.43-3.32a9.64,9.64,0,0,0-2.43-3.66,5.24,5.24,0,0,0-3.3-.94h-1.3v8.13a2.42,2.42,0,0,0,.22,1.06,1.64,1.64,0,0,0,.82.75,7.49,7.49,0,0,0,1.06.3,6.9,6.9,0,0,0,1.3.2v1.27H385.1v-1.27l1.2-.11a3.78,3.78,0,0,0,1.11-.21,1.56,1.56,0,0,0,.78-.69,2.32,2.32,0,0,0,.24-1.1V302.48a2.46,2.46,0,0,0-.21-1.05,1.51,1.51,0,0,0-.81-.73,6.22,6.22,0,0,0-1.14-.42,6.78,6.78,0,0,0-1.17-.21V298.8h10.54v1.27a8.89,8.89,0,0,0-1.25.16,10.07,10.07,0,0,0-1.11.27,1.28,1.28,0,0,0-.82.71,2.67,2.67,0,0,0-.22,1.1V311h1.67a3.11,3.11,0,0,0,1.29-.29,3.77,3.77,0,0,0,1.18-.84,5.87,5.87,0,0,0,1.23-1.92c.31-.76.64-1.67,1-2.75s.68-1.9,1-2.75a7.41,7.41,0,0,1,1.57-2.34,4.9,4.9,0,0,1,1.65-1.13,5,5,0,0,1,2.05-.41,4.48,4.48,0,0,1,1.34.18,2.9,2.9,0,0,1,1,.53,2,2,0,0,1,.54.72,2.17,2.17,0,0,1,.17.89,2.52,2.52,0,0,1-.11.77,1.86,1.86,0,0,1-.89,1.1,1.7,1.7,0,0,1-.86.17,2.38,2.38,0,0,1-1.78-.73,4.14,4.14,0,0,1-.59-.8c-.17-.3-.33-.61-.49-.92a3.57,3.57,0,0,0-.85.84,7,7,0,0,0-.61,1.07,11.05,11.05,0,0,0-.48,1.22c-.14.43-.29.91-.47,1.43s-.31.94-.5,1.48a10.92,10.92,0,0,1-.66,1.51,13.58,13.58,0,0,1-.93,1.5,8.28,8.28,0,0,1-1.26,1.41v.25a7.83,7.83,0,0,1,3.3,1.77,9.66,9.66,0,0,1,2.21,3.12c.34.73.7,1.52,1.1,2.36s.73,1.56,1,2.14a4.16,4.16,0,0,0,1.07,1.6,2.36,2.36,0,0,0,1.05.5c.31.05.65.09,1,.13l.93.1Z"/><path d="M433.67,324.18H423.12v-1.27a10.89,10.89,0,0,0,2.32-.36c.61-.18.92-.4.92-.66a2,2,0,0,0,0-.39,1.54,1.54,0,0,0-.1-.41l-2.1-5.69h-8.91c-.34.83-.61,1.56-.82,2.18s-.4,1.19-.56,1.72a11.4,11.4,0,0,0-.33,1.25,4.42,4.42,0,0,0-.09.79c0,.47.38.84,1.13,1.11a9.26,9.26,0,0,0,2.54.46v1.27h-9.56v-1.27a7.53,7.53,0,0,0,1.17-.2,4,4,0,0,0,1.14-.46,4.42,4.42,0,0,0,1.11-1,6.69,6.69,0,0,0,.77-1.46q1.91-4.77,4.22-10.73L420,298.44h1.43l8.47,21.9a3.59,3.59,0,0,0,1.55,2,3.85,3.85,0,0,0,1.07.42,5.14,5.14,0,0,0,1.11.19Zm-10.21-10.37L419.62,304l-3.79,9.85Z"/><path d="M464.66,324.18H453.45v-1.27q.6,0,1.56-.12a4.21,4.21,0,0,0,1.32-.31,2.18,2.18,0,0,0,.81-.78,2.13,2.13,0,0,0,.26-1.1V302.14h-.27l-8.66,21.63h-.89l-8.25-22.07h-.23v15.15a14.81,14.81,0,0,0,.28,3.34,3.09,3.09,0,0,0,.85,1.65,4,4,0,0,0,1.62.71,9.34,9.34,0,0,0,1.62.36v1.27H433.22v-1.27a14,14,0,0,0,1.69-.27,3.12,3.12,0,0,0,1.36-.59,2.55,2.55,0,0,0,.86-1.54,17.29,17.29,0,0,0,.24-3.47v-13a5.26,5.26,0,0,0-.27-1.84,3,3,0,0,0-.77-1.17,3.53,3.53,0,0,0-1.36-.71,6.46,6.46,0,0,0-1.59-.27V298.8H442l7.27,19.05,6.21-15.94a16.32,16.32,0,0,0,.58-1.83,8.65,8.65,0,0,0,.26-1.28h8.28v1.27a9.62,9.62,0,0,0-1.28.16,9.84,9.84,0,0,0-1.14.27,1.28,1.28,0,0,0-.82.71,2.67,2.67,0,0,0-.22,1.1V320.6a2.28,2.28,0,0,0,.22,1.06,1.74,1.74,0,0,0,.82.75,4.18,4.18,0,0,0,1.15.33,9.29,9.29,0,0,0,1.3.17Z"/></svg>