<svg width="28" height="28" viewBox="0 0 28 28" fill="none" xmlns="http://www.w3.org/2000/svg">
<path d="M14 2.3335C11.5246 2.3335 9.15067 3.31683 7.40033 5.06717C5.64999 6.81751 4.66666 9.19148 4.66666 11.6668C4.66666 17.9668 12.8917 25.0835 13.2417 25.3868C13.453 25.5676 13.7219 25.6669 14 25.6669C14.2781 25.6669 14.547 25.5676 14.7583 25.3868C15.1667 25.0835 23.3333 17.9668 23.3333 11.6668C23.3333 9.19148 22.35 6.81751 20.5997 5.06717C18.8493 3.31683 16.4753 2.3335 14 2.3335ZM14 22.9252C11.515 20.5918 6.99999 15.5635 6.99999 11.6668C6.99999 9.81031 7.73749 8.02984 9.05024 6.71708C10.363 5.40433 12.1435 4.66683 14 4.66683C15.8565 4.66683 17.637 5.40433 18.9497 6.71708C20.2625 8.02984 21 9.81031 21 11.6668C21 15.5635 16.485 20.6035 14 22.9252ZM14 7.00016C13.077 7.00016 12.1748 7.27386 11.4073 7.78664C10.6399 8.29942 10.0418 9.02825 9.68855 9.88097C9.33534 10.7337 9.24293 11.672 9.42299 12.5773C9.60306 13.4825 10.0475 14.314 10.7002 14.9667C11.3528 15.6193 12.1843 16.0638 13.0896 16.2438C13.9948 16.4239 14.9331 16.3315 15.7858 15.9783C16.6386 15.6251 17.3674 15.0269 17.8802 14.2595C18.393 13.4921 18.6667 12.5898 18.6667 11.6668C18.6667 10.4292 18.175 9.24217 17.2998 8.367C16.4247 7.49183 15.2377 7.00016 14 7.00016ZM14 14.0002C13.5385 14.0002 13.0874 13.8633 12.7037 13.6069C12.3199 13.3505 12.0209 12.9861 11.8443 12.5598C11.6677 12.1334 11.6215 11.6642 11.7115 11.2116C11.8015 10.759 12.0238 10.3432 12.3501 10.0169C12.6764 9.69059 13.0922 9.46836 13.5448 9.37833C13.9974 9.2883 14.4666 9.33451 14.8929 9.51111C15.3193 9.68772 15.6837 9.98678 15.9401 10.3705C16.1965 10.7542 16.3333 11.2053 16.3333 11.6668C16.3333 12.2857 16.0875 12.8792 15.6499 13.3167C15.2123 13.7543 14.6188 14.0002 14 14.0002Z" fill="#2977E8"/>
</svg>
