<svg width="48" height="64" viewBox="0 0 48 64" fill="none" xmlns="http://www.w3.org/2000/svg">
    <path
        d="M40 58.7H29.3V53.4C29.6 53.4 29.6 53.4 29.8 53.4C40.3 52 48 42.7 48 31.7C48 25.6 45.6 19.7 41.3 15.7C40.8 15.2 40.2 14.9 39.7 14.4L42.1 10.7L42.4 10.4C43.5 8.00001 42.7 5.10001 40.5 4.00001L34.6 0.500012C33.5 1.18017e-05 32.2 -0.299988 31.1 0.200012C30 0.500012 29 1.30001 28.4 2.30001L14.9 23.5L14.6 23.8C13.5 26.2 14.3 28.9 16.5 29.9L22.4 33.4C23.2 33.7 23.7 33.9 24.5 33.9C25 33.9 25.6 33.9 25.8 33.6C26.9 33.3 27.7 32.5 28.5 31.5L36.8 19C37.1 19.3 37.3 19.3 37.6 19.5C40.8 22.7 42.7 27 42.7 31.8C42.7 40.1 36.8 47.3 29.4 48.1C28.1 48.1 26.7 48.4 25.4 48.1C21.9 47.6 18.5 45.7 16.3 42.8H24.3C25.9 42.8 27 41.7 27 40.1C27 38.5 25.9 37.4 24.3 37.4H2.7C1.1 37.3 0 38.4 0 40C0 41.6 1.1 42.7 2.7 42.7H9.6C12.5 48.3 17.9 52.3 24 53.4V58.7H13.3C11.7 58.7 10.6 59.8 10.6 61.4C10.6 63 11.7 64.1 13.3 64.1H40C41.6 64.1 42.7 63 42.7 61.4C42.7 59.8 41.6 58.7 40 58.7ZM24.3 28.3L19.8 25.6L32.6 5.60001L37.1 8.30001L24.3 28.3Z"
        fill="#36ccc4" />
</svg>