<svg width="48" height="48" viewBox="0 0 48 48" fill="none" xmlns="http://www.w3.org/2000/svg">
<path d="M24 0.724121C19.3965 0.724121 14.8963 2.08923 11.0686 4.64681C7.24092 7.20439 4.2576 10.8396 2.4959 15.0927C0.734206 19.3458 0.273267 24.0258 1.17137 28.5409C2.06947 33.0559 4.28629 37.2033 7.54147 40.4585C10.7967 43.7137 14.944 45.9305 19.4591 46.8286C23.9742 47.7267 28.6542 47.2658 32.9073 45.5041C37.1604 43.7424 40.7956 40.759 43.3532 36.9314C45.9107 33.1037 47.2758 28.6035 47.2758 24C47.2758 17.8268 44.8236 11.9065 40.4585 7.54146C36.0934 3.17639 30.1731 0.724121 24 0.724121ZM24 43.0439C20.2335 43.0439 16.5515 41.927 13.4198 39.8344C10.288 37.7418 7.84712 34.7676 6.40573 31.2878C4.96435 27.8079 4.58722 23.9789 5.32203 20.2847C6.05684 16.5905 7.87059 13.1973 10.5339 10.5339C13.1973 7.87058 16.5906 6.05683 20.2847 5.32202C23.9789 4.58721 27.808 4.96434 31.2878 6.40572C34.7676 7.84711 37.7418 10.288 39.8344 13.4198C41.927 16.5515 43.0439 20.2335 43.0439 24C43.0439 29.0507 41.0375 33.8946 37.466 37.466C33.8946 41.0375 29.0507 43.0439 24 43.0439Z" fill="white"/>
</svg>
