<svg width="50" height="50" viewBox="0 0 50 50" fill="none" xmlns="http://www.w3.org/2000/svg">
<path d="M44.6072 18.0352C44.6072 18.0352 44.6072 18.0352 44.6072 17.9102C43.1521 13.8976 40.4997 10.4287 37.0087 7.97286C33.5177 5.51701 29.3566 4.1927 25.0883 4.17906C20.8201 4.16542 16.6506 5.46312 13.144 7.89661C9.6374 10.3301 6.96285 13.7819 5.48218 17.7852C5.40199 17.9426 5.34581 18.1111 5.31551 18.2852C4.56132 20.4487 4.17404 22.7231 4.16968 25.0143C4.15936 28.0561 4.81524 31.0632 6.09122 33.8243C7.3672 36.5855 9.23234 39.0338 11.5556 40.9971C13.8788 42.9605 16.6038 44.3913 19.5391 45.1891C22.4744 45.9868 25.5487 46.1321 28.5462 45.6148C31.5436 45.0974 34.3914 43.93 36.8895 42.1945C39.3875 40.459 41.4753 38.1976 43.006 35.5691C44.5367 32.9406 45.4733 30.0087 45.7499 26.9796C46.0265 23.9504 45.6365 20.8975 44.6072 18.0352ZM25.003 8.34766C27.9257 8.35066 30.7963 9.12218 33.3267 10.5848C35.857 12.0475 37.9583 14.1498 39.4197 16.681H36.9197C36.3002 16 35.5379 15.4643 34.6873 15.1122C33.8367 14.76 32.9188 14.6001 31.9993 14.6439C31.0797 14.6877 30.1812 14.9341 29.3679 15.3655C28.5546 15.7969 27.8467 16.4026 27.2947 17.1393C26.5641 16.8515 25.7881 16.6963 25.003 16.681C24.2179 16.6963 23.4419 16.8515 22.7113 17.1393C22.1593 16.4026 21.4514 15.7969 20.6381 15.3655C19.8249 14.9341 18.9263 14.6877 18.0068 14.6439C17.0872 14.6001 16.1693 14.76 15.3187 15.1122C14.4681 15.4643 13.7058 16 13.0863 16.681H10.5863C12.0477 14.1498 14.149 12.0475 16.6794 10.5848C19.2098 9.12218 22.0803 8.35066 25.003 8.34766ZM34.378 20.8477C34.378 21.2597 34.2558 21.6625 34.0269 22.0051C33.798 22.3477 33.4726 22.6147 33.0919 22.7724C32.7113 22.9301 32.2924 22.9713 31.8882 22.891C31.4841 22.8106 31.1129 22.6122 30.8215 22.3208C30.5302 22.0294 30.3318 21.6582 30.2514 21.2541C30.171 20.85 30.2122 20.4311 30.3699 20.0504C30.5276 19.6697 30.7946 19.3443 31.1372 19.1154C31.4798 18.8865 31.8826 18.7643 32.2947 18.7643C32.8472 18.7643 33.3771 18.9838 33.7678 19.3745C34.1585 19.7652 34.378 20.2951 34.378 20.8477ZM19.7947 20.8477C19.7947 21.2597 19.6725 21.6625 19.4436 22.0051C19.2147 22.3477 18.8893 22.6147 18.5086 22.7724C18.1279 22.9301 17.709 22.9713 17.3049 22.891C16.9008 22.8106 16.5296 22.6122 16.2382 22.3208C15.9468 22.0294 15.7484 21.6582 15.668 21.2541C15.5877 20.85 15.6289 20.4311 15.7866 20.0504C15.9443 19.6697 16.2113 19.3443 16.5539 19.1154C16.8965 18.8865 17.2993 18.7643 17.7113 18.7643C18.2639 18.7643 18.7938 18.9838 19.1845 19.3745C19.5752 19.7652 19.7947 20.2951 19.7947 20.8477ZM25.003 41.681C20.5827 41.681 16.3435 39.925 13.2179 36.7994C10.0923 33.6738 8.33634 29.4346 8.33634 25.0143C8.3456 23.6085 8.52752 22.2091 8.87801 20.8477H11.4613C11.4116 22.5053 12.0224 24.1147 13.1593 25.322C14.2963 26.5293 15.8662 27.2354 17.5238 27.2852C19.1814 27.3349 20.7909 26.7241 21.9982 25.5872C23.2054 24.4502 23.9116 22.8803 23.9613 21.2227C24.278 21.0398 24.6373 20.9435 25.003 20.9435C25.3687 20.9435 25.728 21.0398 26.0447 21.2227C26.0944 22.8803 26.8006 24.4502 28.0078 25.5872C29.2151 26.7241 30.8246 27.3349 32.4822 27.2852C34.1398 27.2354 35.7097 26.5293 36.8467 25.322C37.9836 24.1147 38.5944 22.5053 38.5447 20.8477H41.128C41.4785 22.2091 41.6604 23.6085 41.6697 25.0143C41.6697 29.4346 39.9137 33.6738 36.7881 36.7994C33.6625 39.925 29.4233 41.681 25.003 41.681ZM29.9197 29.6602C28.527 30.783 26.792 31.3953 25.003 31.3953C23.2141 31.3953 21.479 30.783 20.0863 29.6602C19.6609 29.3065 19.1124 29.1364 18.5615 29.1872C18.0106 29.238 17.5025 29.5055 17.1488 29.931C16.7952 30.3564 16.6251 30.9049 16.6759 31.4558C16.7267 32.0067 16.9942 32.5149 17.4197 32.8685C19.5475 34.6448 22.2313 35.6177 25.003 35.6177C27.7748 35.6177 30.4586 34.6448 32.5863 32.8685C33.0118 32.5149 33.2793 32.0067 33.3301 31.4558C33.3809 30.9049 33.2108 30.3564 32.8572 29.931C32.6821 29.7203 32.4672 29.5462 32.2248 29.4186C31.9824 29.291 31.7173 29.2123 31.4445 29.1872C30.8936 29.1364 30.3451 29.3065 29.9197 29.6602Z" fill="white"/>
</svg>
