<svg width="28" height="28" viewBox="0 0 28 28" fill="none" xmlns="http://www.w3.org/2000/svg">
<path d="M22.6801 15.1664C22.4234 15.1664 22.1551 15.0848 21.8984 15.0264C21.3786 14.9119 20.8678 14.7598 20.3701 14.5714C19.8288 14.3745 19.2339 14.3848 18.6998 14.6001C18.1656 14.8155 17.73 15.2208 17.4767 15.7381L17.2201 16.2631C16.0837 15.631 15.0395 14.8459 14.1167 13.9298C13.2006 13.007 12.4155 11.9628 11.7834 10.8264L12.2734 10.4998C12.7907 10.2465 13.196 9.81088 13.4114 9.27674C13.6267 8.74259 13.637 8.14766 13.4401 7.60643C13.2548 7.10759 13.1028 6.59703 12.9851 6.0781C12.9267 5.82143 12.8801 5.5531 12.8451 5.28477C12.7034 4.46299 12.273 3.7188 11.6313 3.18621C10.9896 2.65362 10.1789 2.36764 9.34506 2.37976H5.84506C5.34226 2.37504 4.84435 2.47871 4.38522 2.68372C3.92609 2.88872 3.51652 3.19024 3.18439 3.56776C2.85227 3.94528 2.60538 4.38992 2.46054 4.87143C2.3157 5.35294 2.27632 5.86 2.34506 6.3581C2.96658 11.2457 5.19876 15.787 8.68898 19.2645C12.1792 22.7421 16.7286 24.9577 21.6184 25.5614H22.0617C22.922 25.5627 23.7527 25.247 24.3951 24.6748C24.7641 24.3446 25.059 23.94 25.2601 23.4875C25.4612 23.035 25.564 22.5449 25.5617 22.0498V18.5498C25.5474 17.7394 25.2523 16.9591 24.7268 16.342C24.2012 15.725 23.4778 15.3095 22.6801 15.1664ZM23.2634 22.1664C23.2632 22.3321 23.2277 22.4958 23.1593 22.6467C23.0909 22.7975 22.9912 22.9321 22.8667 23.0414C22.7368 23.1546 22.5844 23.2391 22.4195 23.2893C22.2547 23.3396 22.0811 23.3545 21.9101 23.3331C17.5408 22.7729 13.4823 20.774 10.3749 17.6518C7.26745 14.5295 5.28787 10.4617 4.74839 6.08976C4.72982 5.91887 4.74609 5.74598 4.79623 5.58155C4.84636 5.41712 4.9293 5.26457 5.04006 5.1331C5.14939 5.00865 5.28396 4.90891 5.43483 4.84052C5.5857 4.77212 5.74941 4.73664 5.91506 4.73643H9.41506C9.68636 4.73039 9.95128 4.81912 10.1642 4.98735C10.3772 5.15557 10.5248 5.39276 10.5817 5.6581C10.6284 5.97699 10.6867 6.29199 10.7567 6.6031C10.8915 7.2181 11.0709 7.82247 11.2934 8.41143L9.66006 9.16976C9.5204 9.23384 9.39478 9.32487 9.29041 9.43763C9.18603 9.55038 9.10496 9.68265 9.05184 9.82683C8.99872 9.971 8.97461 10.1243 8.98088 10.2778C8.98715 10.4313 9.02369 10.5821 9.08839 10.7214C10.7675 14.318 13.6585 17.209 17.2551 18.8881C17.5391 19.0048 17.8577 19.0048 18.1417 18.8881C18.2872 18.8361 18.4209 18.7556 18.5351 18.6515C18.6492 18.5473 18.7416 18.4216 18.8067 18.2814L19.5301 16.6481C20.1332 16.8638 20.7487 17.043 21.3734 17.1848C21.6845 17.2548 21.9995 17.3131 22.3184 17.3598C22.5837 17.4167 22.8209 17.5643 22.9891 17.7773C23.1574 17.9902 23.2461 18.2551 23.2401 18.5264L23.2634 22.1664Z" fill="#2977E8"/>
</svg>
