<svg width="64" height="44" viewBox="0 0 64 44" fill="none" xmlns="http://www.w3.org/2000/svg">
    <path
        d="M21.3 27.3C28.8 27.3 34.6 21.4 34.6 14C34.6 6.60001 28.7 0.700012 21.3 0.700012C13.9 0.700012 8 6.50001 8 14C8 21.5 13.9 27.3 21.3 27.3ZM21.3 6.00001C25.8 6.00001 29.3 9.50001 29.3 14C29.3 18.5 25.8 22 21.3 22C16.8 22 13.3 18.5 13.3 14C13.3 9.50001 16.8 6.00001 21.3 6.00001Z"
        fill="#36ccc4" />
    <path
        d="M21.3 30C13.6 30 6.39998 33.2 0.799976 38.8C-0.300024 39.9 -0.300024 41.5 0.799976 42.5C1.89998 43.5 3.49998 43.6 4.49998 42.5C8.99998 38 15.2 35.3 21.3 35.3C27.4 35.3 33.3 38 38.1 42.5C38.6 43 39.4 43.3 40 43.3C40.8 43.3 41.3 43 41.9 42.5C43 41.4 43 39.8 41.9 38.8C36.2 33.2 28.8 30 21.3 30Z"
        fill="#36ccc4" />
    <path
        d="M48 27.3C52.5 27.3 56 23.8 56 19.3C56 14.8 52.5 11.3 48 11.3C43.5 11.3 40 14.8 40 19.3C40 23.8 43.4 27.3 48 27.3ZM48 16.7C49.6 16.7 50.7 17.8 50.7 19.4C50.7 21 49.6 22.1 48 22.1C46.4 22.1 45.3 21 45.3 19.4C45.3 17.7 46.4 16.7 48 16.7Z"
        fill="#36ccc4" />
    <path
        d="M63.1999 36.1C57.5999 30.8 49.8999 28.9 42.0999 30.8C40.7999 31.1 39.6999 32.7 40.1999 34C40.4999 35.3 42.0999 36.4 43.3999 35.9C49.2999 34.3 55.3999 35.9 59.6999 39.9C60.1999 40.4 60.7999 40.7 61.5999 40.7C62.3999 40.7 62.8999 40.4 63.4999 39.9C64.1999 38.8 64.1999 36.9 63.1999 36.1Z"
        fill="#36ccc4" />
</svg>