<svg width="50" height="50" viewBox="0 0 50 50" fill="none" xmlns="http://www.w3.org/2000/svg">
<path d="M25 2.08325C20.4676 2.08325 16.0369 3.42729 12.2682 5.94541C8.49961 8.46352 5.56232 12.0426 3.82781 16.2301C2.0933 20.4176 1.63948 25.0253 2.52372 29.4707C3.40797 33.9161 5.59057 37.9995 8.79552 41.2045C12.0005 44.4094 16.0838 46.592 20.5292 47.4762C24.9746 48.3605 29.5824 47.9067 33.7699 46.1722C37.9574 44.4376 41.5364 41.5004 44.0546 37.7317C46.5727 33.9631 47.9167 29.5324 47.9167 24.9999C47.9167 18.922 45.5023 13.0931 41.2046 8.79539C36.9069 4.49768 31.0779 2.08325 25 2.08325ZM25 43.7499C21.2917 43.7499 17.6665 42.6503 14.5831 40.59C11.4997 38.5297 9.09645 35.6013 7.67731 32.1752C6.25817 28.7491 5.88685 24.9791 6.61033 21.342C7.3338 17.7048 9.11956 14.3639 11.7418 11.7417C14.364 9.11943 17.705 7.33367 21.3421 6.61019C24.9792 5.88672 28.7492 6.25803 32.1754 7.67718C35.6015 9.09632 38.5298 11.4996 40.5901 14.583C42.6504 17.6664 43.75 21.2915 43.75 24.9999C43.75 29.9727 41.7746 34.7419 38.2583 38.2582C34.742 41.7745 29.9729 43.7499 25 43.7499Z" fill="#2977E8"/>
<path d="M18.4052 36.4943C18.4052 37.51 19.2286 38.3334 20.2443 38.3334C21.2599 38.3334 22.0833 37.51 22.0833 36.4943V33.6275H29.2503C30.1167 33.6275 30.819 32.9252 30.819 32.0589C30.819 31.1926 30.1167 30.4903 29.2503 30.4903H22.0833V27.353H28.4914C32.7695 27.353 36.25 23.8346 36.25 19.5099C36.25 15.1852 32.7695 11.6667 28.4914 11.6667H19.9569C19.0988 11.6667 18.4052 12.3695 18.4052 13.2354V24.2158H15.3186C14.4523 24.2158 13.75 24.9181 13.75 25.7844C13.75 26.6507 14.4523 27.353 15.3186 27.353H18.4052V30.4903H15.3186C14.4523 30.4903 13.75 31.1926 13.75 32.0589C13.75 32.9252 14.4523 33.6275 15.3186 33.6275H18.4052V36.4943ZM22.0833 14.804H28.4914C31.0579 14.804 33.1465 16.9154 33.1465 19.5099C33.1465 22.1044 31.0579 24.2158 28.4914 24.2158H22.0833V14.804Z" fill="#2977E8"/>
</svg>
