<svg width="50" height="50" viewBox="0 0 50 50" fill="none" xmlns="http://www.w3.org/2000/svg">
<path d="M47.0853 4.29662C46.9913 3.93979 46.8043 3.6143 46.5433 3.35337C46.2824 3.09245 45.9569 2.90544 45.6001 2.81143C41.3264 1.70141 36.8261 1.82097 32.6173 3.15633C28.4086 4.4917 24.6626 6.98858 21.8106 10.3595L19.4879 13.1175L14.0612 11.8081C12.7419 11.3482 11.3007 11.3812 10.0039 11.9009C8.70697 12.4207 7.64197 13.3922 7.00552 14.636L2.42179 22.7608C2.26118 23.0454 2.16978 23.3638 2.15497 23.6902C2.14016 24.0166 2.20236 24.342 2.33654 24.64C2.47072 24.9379 2.67312 25.2001 2.92738 25.4054C3.18163 25.6107 3.48062 25.7533 3.80017 25.8216L10.2017 27.1939C9.65945 28.8446 9.27224 30.5423 9.04513 32.2649C9.00395 32.5814 9.03601 32.9031 9.13883 33.2052C9.24165 33.5073 9.41249 33.7818 9.63817 34.0075L16.0967 40.466C16.2901 40.6595 16.5197 40.813 16.7724 40.9178C17.0252 41.0225 17.2961 41.0764 17.5696 41.0764C17.6296 41.0764 17.6897 41.0734 17.7507 41.0683C19.5118 40.9099 21.2516 40.5678 22.9415 40.0474L24.2825 46.3041C24.351 46.6235 24.4937 46.9224 24.699 47.1766C24.9043 47.4307 25.1665 47.633 25.4644 47.7672C25.7623 47.9014 26.0876 47.9636 26.414 47.9489C26.7404 47.9341 27.0588 47.8429 27.3434 47.6824L35.4794 43.0936C36.6245 42.3978 37.519 41.3563 38.0338 40.1193C38.5487 38.8822 38.6573 37.5136 38.344 36.2109L36.9508 30.463L39.528 28.0931C42.9116 25.2492 45.418 21.5029 46.7559 17.2903C48.0937 13.0776 48.2079 8.57167 47.0853 4.29662ZM7.44194 22.3407L10.6839 16.5912C10.8853 16.2008 11.2284 15.9023 11.6428 15.7569C12.0572 15.6114 12.5116 15.63 12.9127 15.8089L16.4906 16.676L15.1365 18.2839C13.8526 19.8226 12.7423 21.498 11.8254 23.28L7.44194 22.3407ZM33.4215 39.4702L27.7636 42.6612L26.8688 38.4849C28.6826 37.5803 30.3724 36.4461 31.8967 35.1101L33.4457 33.6859L34.2862 37.1538C34.3952 37.582 34.3708 38.0333 34.2163 38.4473C34.0618 38.8613 33.7845 39.2181 33.4215 39.4702ZM36.7846 24.9591L29.1084 32.0138C26.07 34.6414 22.3222 36.3116 18.3367 36.8142L13.3278 31.8052C14.0005 27.8094 15.7272 24.0653 18.3296 20.9594L21.8261 16.808C21.8844 16.747 21.9388 16.6825 21.9889 16.6147L24.9784 13.0654C27.1887 10.4547 30.0523 8.47747 33.2767 7.33546C36.5011 6.19346 39.9709 5.92763 43.3316 6.56512C43.9845 9.93641 43.7215 13.4211 42.5701 16.6562C41.4186 19.8913 39.4207 22.7585 36.7846 24.9591ZM34.8617 12.118C34.2436 12.118 33.6394 12.3012 33.1255 12.6446C32.6116 12.988 32.2111 13.4761 31.9745 14.0471C31.738 14.6181 31.6761 15.2464 31.7967 15.8526C31.9173 16.4588 32.2149 17.0156 32.652 17.4527C33.089 17.8897 33.6458 18.1873 34.252 18.3079C34.8582 18.4285 35.4865 18.3666 36.0576 18.1301C36.6286 17.8936 37.1166 17.493 37.46 16.9791C37.8034 16.4652 37.9867 15.861 37.9867 15.243C37.9867 14.8326 37.9059 14.4262 37.7488 14.047C37.5918 13.6678 37.3616 13.3233 37.0714 13.0331C36.7812 12.7429 36.4367 12.5128 36.0575 12.3557C35.6784 12.1987 35.272 12.1179 34.8616 12.1179L34.8617 12.118Z" fill="#2977E8"/>
</svg>
