<svg width="50" height="50" viewBox="0 0 50 50" fill="none" xmlns="http://www.w3.org/2000/svg">
<path d="M25 1.72412C20.3965 1.72412 15.8963 3.08923 12.0686 5.64681C8.24092 8.20439 5.2576 11.8396 3.4959 16.0927C1.73421 20.3458 1.27327 25.0258 2.17137 29.5409C3.06947 34.0559 5.28629 38.2033 8.54147 41.4585C11.7967 44.7137 15.944 46.9305 20.4591 47.8286C24.9742 48.7267 29.6542 48.2658 33.9073 46.5041C38.1604 44.7424 41.7956 41.759 44.3532 37.9314C46.9107 34.1037 48.2758 29.6035 48.2758 25C48.2758 18.8268 45.8236 12.9065 41.4585 8.54146C37.0934 4.17639 31.1731 1.72412 25 1.72412ZM25 44.0439C21.2335 44.0439 17.5515 42.927 14.4198 40.8344C11.288 38.7418 8.84712 35.7676 7.40573 32.2878C5.96435 28.8079 5.58722 24.9789 6.32203 21.2847C7.05684 17.5905 8.87059 14.1973 11.5339 11.5339C14.1973 8.87058 17.5906 7.05683 21.2847 6.32202C24.9789 5.58721 28.808 5.96434 32.2878 7.40572C35.7676 8.84711 38.7418 11.288 40.8344 14.4198C42.927 17.5515 44.0439 21.2335 44.0439 25C44.0439 30.0507 42.0375 34.8946 38.466 38.466C34.8946 42.0375 30.0507 44.0439 25 44.0439Z" fill="white"/>
<path d="M18.4304 36.0989C18.4304 37.1107 19.2507 37.9309 20.2625 37.9309C21.2743 37.9309 22.0945 37.1107 22.0945 36.0989V33.367H29.2754C30.1155 33.367 30.7967 32.6859 30.7967 31.8457C30.7967 31.0055 30.1155 30.3244 29.2754 30.3244H22.0945V27.2818H28.478C32.7397 27.2818 36.2069 23.8696 36.2069 19.6753C36.2069 15.4811 32.7397 12.0688 28.478 12.0688H19.9762C19.1214 12.0688 18.4304 12.7504 18.4304 13.5901V24.2392H15.3144C14.4742 24.2392 13.7931 24.9203 13.7931 25.7605C13.7931 26.6007 14.4742 27.2818 15.3144 27.2818H18.4304V30.3244H15.3144C14.4742 30.3244 13.7931 31.0055 13.7931 31.8457C13.7931 32.6859 14.4742 33.367 15.3144 33.367H18.4304V36.0989ZM22.0945 15.1114H28.478C31.0347 15.1114 33.1153 17.1591 33.1153 19.6753C33.1153 22.1916 31.0347 24.2392 28.478 24.2392H22.0945V15.1114Z" fill="white"/>
</svg>
