<svg width="50" height="50" viewBox="0 0 50 50" fill="none" xmlns="http://www.w3.org/2000/svg">
<path d="M25 2.08336C20.4676 2.08336 16.0369 3.4274 12.2682 5.94551C8.49961 8.46363 5.56232 12.0427 3.82781 16.2302C2.0933 20.4177 1.63948 25.0254 2.52372 29.4708C3.40797 33.9162 5.59057 37.9996 8.79552 41.2046C12.0005 44.4095 16.0838 46.5921 20.5292 47.4764C24.9746 48.3606 29.5824 47.9068 33.7699 46.1723C37.9574 44.4378 41.5364 41.5005 44.0546 37.7318C46.5727 33.9632 47.9167 29.5325 47.9167 25C47.9167 18.9221 45.5023 13.0932 41.2046 8.7955C36.9069 4.49779 31.0779 2.08336 25 2.08336ZM25 43.75C21.2917 43.75 17.6665 42.6504 14.5831 40.5901C11.4997 38.5298 9.09645 35.6015 7.67731 32.1753C6.25817 28.7492 5.88685 24.9792 6.61033 21.3421C7.3338 17.7049 9.11956 14.364 11.7418 11.7418C14.364 9.11954 17.705 7.33377 21.3421 6.6103C24.9792 5.88683 28.7492 6.25814 32.1754 7.67728C35.6015 9.09643 38.5298 11.4997 40.5901 14.5831C42.6504 17.6665 43.75 21.2916 43.75 25C43.75 29.9728 41.7746 34.742 38.2583 38.2583C34.742 41.7746 29.9729 43.75 25 43.75Z" fill="white"/>
<path d="M18.4052 36.4944C18.4052 37.5101 19.2286 38.3335 20.2443 38.3335C21.2599 38.3335 22.0833 37.5101 22.0833 36.4944V33.6276H29.2503C30.1167 33.6276 30.819 32.9253 30.819 32.059C30.819 31.1927 30.1167 30.4904 29.2503 30.4904H22.0833V27.3531H28.4914C32.7695 27.3531 36.25 23.8347 36.25 19.51C36.25 15.1853 32.7695 11.6668 28.4914 11.6668H19.9569C19.0988 11.6668 18.4052 12.3696 18.4052 13.2355V24.2158H15.3186C14.4523 24.2158 13.75 24.9181 13.75 25.7845C13.75 26.6508 14.4523 27.3531 15.3186 27.3531H18.4052V30.4904H15.3186C14.4523 30.4904 13.75 31.1927 13.75 32.059C13.75 32.9253 14.4523 33.6276 15.3186 33.6276H18.4052V36.4944ZM22.0833 14.8041H28.4914C31.0579 14.8041 33.1465 16.9155 33.1465 19.51C33.1465 22.1045 31.0579 24.2158 28.4914 24.2158H22.0833V14.8041Z" fill="white"/>
</svg>
