<svg width="50" height="50" viewBox="0 0 50 50" fill="none" xmlns="http://www.w3.org/2000/svg">
<g clip-path="url(#clip0)">
<path d="M16.6406 29.1406C22.5 29.1406 27.0312 24.5312 27.0312 18.75C27.0312 12.9687 22.4219 8.35938 16.6406 8.35938C10.8594 8.35938 6.25 12.8906 6.25 18.75C6.25 24.6094 10.8594 29.1406 16.6406 29.1406ZM16.6406 12.5C20.1562 12.5 22.8906 15.2344 22.8906 18.75C22.8906 22.2656 20.1562 25 16.6406 25C13.125 25 10.3906 22.2656 10.3906 18.75C10.3906 15.2344 13.125 12.5 16.6406 12.5Z" fill="#2977E8"/>
<path d="M16.6406 31.25C10.625 31.25 4.99997 33.75 0.62497 38.125C-0.234406 38.9844 -0.234406 40.2344 0.62497 41.0156C1.48434 41.7969 2.73434 41.875 3.51559 41.0156C7.03122 37.5 11.875 35.3906 16.6406 35.3906C21.4062 35.3906 26.0156 37.5 29.7656 41.0156C30.1562 41.4063 30.7812 41.6406 31.25 41.6406C31.875 41.6406 32.2656 41.4063 32.7343 41.0156C33.5937 40.1563 33.5937 38.9062 32.7343 38.125C28.2812 33.75 22.5 31.25 16.6406 31.25Z" fill="#2977E8"/>
<path d="M37.5 29.1406C41.0156 29.1406 43.75 26.4062 43.75 22.8906C43.75 19.375 41.0156 16.6406 37.5 16.6406C33.9844 16.6406 31.25 19.375 31.25 22.8906C31.25 26.4062 33.9062 29.1406 37.5 29.1406ZM37.5 20.8594C38.75 20.8594 39.6094 21.7188 39.6094 22.9688C39.6094 24.2188 38.75 25.0781 37.5 25.0781C36.25 25.0781 35.3906 24.2188 35.3906 22.9688C35.3906 21.6406 36.25 20.8594 37.5 20.8594Z" fill="#2977E8"/>
<path d="M49.3749 36.0157C44.9999 31.8751 38.9843 30.3907 32.8905 31.8751C31.8749 32.1095 31.0155 33.3595 31.4062 34.3751C31.6405 35.3907 32.8905 36.2501 33.9062 35.8595C38.5155 34.6095 43.2812 35.8595 46.6405 38.9845C47.0312 39.3751 47.4999 39.6095 48.1249 39.6095C48.7499 39.6095 49.1405 39.3751 49.6093 38.9845C50.1562 38.1251 50.1562 36.6407 49.3749 36.0157Z" fill="#2977E8"/>
</g>
<defs>
<clipPath id="clip0">
<rect width="50" height="50" fill="white"/>
</clipPath>
</defs>
</svg>
